<svg width="140" height="140" viewBox="0 0 140 140" fill="none" xmlns="http://www.w3.org/2000/svg">
<circle cx="70" cy="70" r="70" fill="#189292"/>
<circle cx="70" cy="70" r="30" fill="white"/>
<path d="M84.4917 76.1166C85.6558 73.7508 86.1497 71.4024 85.9608 69.1359C85.7718 66.8694 84.8931 64.6208 83.3499 62.4549C81.7993 60.2786 79.5248 58.1127 76.5872 56.0172C75.5763 55.2954 73.6587 54.2791 71.6543 53.6361C69.8794 53.0674 67.3837 52.5892 65.5748 53.5455C64.0268 54.364 63.2654 56.0321 63.3113 58.5024C63.3549 60.9269 64.361 63.42 66.3829 66.1249C68.1163 68.4434 70.3755 70.622 72.369 72.5438C74.3066 74.4113 76.1369 76.1748 77.0981 77.698C77.1116 77.7199 78.4109 79.9007 77.6653 82.0727C77.1565 83.5601 75.8097 84.7268 73.663 85.547C68.9557 87.0445 64.1154 84.7688 60.8819 82.595C58.8173 81.2065 57.1258 79.6811 56.0642 78.6394C58.5643 79.1513 60.4382 78.7024 61.1865 78.4605C61.6098 78.9839 62.0597 79.4851 62.5342 79.9623C64.0443 81.4764 65.6878 82.5898 67.44 83.2831C67.5591 83.3303 67.692 83.328 67.8094 83.2769C67.9268 83.2258 68.0191 83.13 68.0661 83.0106C68.1131 82.8912 68.1109 82.758 68.0599 82.6403C68.0089 82.5226 67.9134 82.43 67.7943 82.3828C65.601 81.5154 63.5796 79.9265 61.7842 77.6613C61.7518 77.6033 61.7071 77.5531 61.6533 77.5143C61.5713 77.4316 60.5412 76.3112 60.2161 72.0499C61.556 74.1257 63.6481 76.3563 66.1176 78.3022C69.3694 80.8648 72.7058 82.4782 75.0426 82.6182C75.1062 82.6225 75.1699 82.6141 75.2302 82.5936C75.2905 82.573 75.3461 82.5407 75.3939 82.4985C75.4416 82.4563 75.4806 82.4051 75.5086 82.3477C75.5365 82.2904 75.5528 82.228 75.5566 82.1643C75.5604 82.1006 75.5516 82.0368 75.5307 81.9765C75.5098 81.9162 75.4772 81.8606 75.4347 81.813C75.3923 81.7654 75.3409 81.7267 75.2835 81.6991C75.2261 81.6716 75.1638 81.6556 75.1002 81.6523C72.9519 81.5237 69.817 79.9868 66.714 77.5401C63.6001 75.0863 61.1214 72.1899 60.0822 69.7926C60.0377 69.69 59.9591 69.6061 59.8599 69.5551C59.7606 69.5041 59.6468 69.4891 59.5378 69.5127C59.4288 69.5363 59.3313 69.5971 59.2619 69.6846C59.1925 69.7722 59.1555 69.8811 59.1572 69.9929C59.2314 74.5863 60.0137 76.7076 60.5534 77.6311C59.5468 77.8896 57.3627 78.216 54.6462 77.2374C54.5457 77.201 54.436 77.1992 54.3343 77.2321C54.2326 77.265 54.1446 77.3309 54.0843 77.4193C54.024 77.5077 53.9946 77.6138 54.0008 77.7207C54.0071 77.8277 54.0485 77.9296 54.1187 78.0104C54.1567 78.0541 54.5188 78.4684 55.1471 79.0983C56.2078 80.1618 58.0267 81.8395 60.3243 83.3855C62.4853 84.8405 64.6184 85.8712 66.6651 86.4478C69.2542 87.1788 71.7106 87.184 73.9654 86.4635C75.8463 85.8633 77.6073 84.7491 79.2011 83.151C81.5942 80.7598 83.3726 78.3918 84.4917 76.1166ZM77.9576 77.254C77.9489 77.2378 77.941 77.2242 77.9354 77.2159C77.9266 77.2002 77.921 77.1919 77.921 77.1919C76.9009 75.5706 75.0252 73.7626 73.0396 71.8482C68.9763 67.9311 64.371 63.4926 64.2781 58.4867C64.2397 56.4114 64.8279 55.0377 66.0268 54.4038C67.4047 53.675 69.478 53.9458 71.4466 54.5836C71.6412 55.0605 72.1094 56.4573 71.509 57.6542C71.0208 58.6284 69.9143 59.2728 68.221 59.5769C68.1585 59.5877 68.0987 59.6109 68.0451 59.645C67.9914 59.6791 67.9451 59.7235 67.9086 59.7756C67.8721 59.8277 67.8462 59.8865 67.8325 59.9486C67.8187 60.0107 67.8173 60.075 67.8283 60.1377C67.8393 60.2004 67.8625 60.2603 67.8965 60.3141C67.9306 60.3678 67.9749 60.4143 68.0269 60.4508C68.0789 60.4874 68.1375 60.5133 68.1995 60.5271C68.2615 60.541 68.3256 60.5424 68.3881 60.5314C69.9972 60.2449 71.1765 59.6609 71.9074 58.7916C73.6089 60.2107 76.424 62.7332 78.6465 65.5881C79.9947 67.3196 80.9258 68.9251 81.4136 70.3604C81.9742 72.0096 81.9476 73.4437 81.3346 74.6226C81.3043 74.679 81.2854 74.7409 81.2792 74.8047C81.2729 74.8685 81.2793 74.9329 81.2981 74.9942C81.3168 75.0554 81.3475 75.1124 81.3884 75.1616C81.4293 75.2109 81.4795 75.2515 81.5362 75.2812C81.5929 75.3108 81.6549 75.3289 81.7185 75.3343C81.7822 75.3397 81.8464 75.3324 81.9072 75.3128C81.9681 75.2931 82.0244 75.2616 82.073 75.2199C82.1216 75.1783 82.1614 75.1274 82.1902 75.0702C83.5353 72.483 82.599 69.0922 79.4075 64.9927C77.0881 62.0135 74.1513 59.3975 72.4266 57.967C72.9096 56.9039 72.7917 55.7836 72.5932 55.0014C73.9833 55.557 75.2324 56.2425 76.0265 56.8094C81.6248 60.8053 84.6427 64.9809 84.9965 69.2208C85.3456 73.4034 83.2417 77.7238 78.5676 82.4275C78.5728 82.4126 78.5785 82.3982 78.5833 82.3837C79.4105 79.9584 78.1854 77.649 77.9576 77.2518V77.254Z" fill="#189292"/>
<path d="M76.0866 21.2556C75.1317 21.1475 74.3251 20.8516 73.6667 20.3676C73.0127 19.8841 72.5357 19.2556 72.2355 18.4819C71.9403 17.7044 71.8508 16.8246 71.9668 15.8426C72.0813 14.8737 72.3702 14.0477 72.8335 13.3648C73.2967 12.6818 73.9031 12.178 74.6526 11.8533C75.402 11.5286 76.2609 11.421 77.2291 11.5305C78.3172 11.6535 79.2094 12.0252 79.9057 12.6456C80.607 13.2621 81.018 14.0879 81.1387 15.1231L78.9906 15.3623C78.9318 14.7172 78.7277 14.2164 78.3783 13.8598C78.0333 13.5038 77.581 13.2941 77.0214 13.2308C76.484 13.17 76.0111 13.2486 75.6028 13.4667C75.1989 13.6852 74.8691 14.0199 74.6133 14.4709C74.3624 14.9181 74.199 15.4632 74.123 16.1063C74.047 16.7494 74.0807 17.3212 74.2241 17.8218C74.368 18.318 74.611 18.7175 74.9533 19.0204C75.2961 19.319 75.7273 19.4977 76.2469 19.5564C76.8065 19.6197 77.2958 19.5166 77.7147 19.2469C78.1336 18.9773 78.4455 18.5656 78.6505 18.012L80.7389 18.6775C80.3653 19.6304 79.7674 20.3289 78.9453 20.7731C78.1232 21.2173 77.1703 21.3781 76.0866 21.2556Z" fill="white"/>
<path d="M86.4676 23.4392C85.7784 23.2075 85.2218 22.8539 84.7979 22.3784C84.3782 21.9043 84.1126 21.3549 84.0012 20.73C83.8912 20.101 83.9575 19.4411 84.2001 18.7503C84.4442 18.0553 84.8065 17.4949 85.287 17.0691C85.7689 16.6391 86.3236 16.3654 86.9511 16.2479C87.5842 16.1277 88.2454 16.1835 88.9346 16.4152C89.628 16.6483 90.1846 17.0019 90.6043 17.476C91.0296 17.9474 91.2973 18.4976 91.4073 19.1265C91.5188 19.7514 91.4525 20.4113 91.2084 21.1063C90.9643 21.8012 90.6013 22.3637 90.1194 22.7937C89.6389 23.2195 89.0821 23.4926 88.4489 23.6127C87.8172 23.7287 87.1568 23.6709 86.4676 23.4392ZM86.9512 22.0825C87.4205 22.2402 87.8581 22.1723 88.2638 21.8785C88.6752 21.5821 88.9971 21.1029 89.2296 20.441C89.4635 19.775 89.5106 19.2035 89.3709 18.7264C89.2354 18.2507 88.9309 17.9333 88.4573 17.7741C87.988 17.6163 87.5483 17.6836 87.1384 17.9759C86.7327 18.2696 86.4128 18.7495 86.1789 19.4155C85.945 20.0815 85.8958 20.6523 86.0313 21.128C86.171 21.6051 86.4777 21.9233 86.9512 22.0825Z" fill="white"/>
<path d="M92.9576 25.6947L96.6055 19.5732L98.2741 20.5249L97.433 21.9362L97.5445 21.658C97.9747 21.3616 98.4323 21.1973 98.9173 21.1651C99.4045 21.1291 99.8934 21.251 100.384 21.5308C100.871 21.8084 101.204 22.143 101.385 22.5346C101.569 22.9284 101.623 23.3591 101.546 23.8267C101.47 24.2943 101.283 24.7775 100.985 25.2763L98.7628 29.0059L97.0363 28.0211L99.1947 24.3992C99.4536 23.9646 99.5806 23.5865 99.5757 23.2647C99.5731 22.9391 99.3902 22.6728 99.0272 22.4657C98.5984 22.2212 98.1554 22.209 97.6982 22.4292C97.2448 22.6516 96.7974 23.1331 96.3561 23.8738L94.6841 26.6795L92.9576 25.6947Z" fill="white"/>
<path d="M102.784 32.0138C102.369 31.6809 102.131 31.3262 102.071 30.9497C102.017 30.5727 102.146 30.1981 102.458 29.8262L105.159 26.6052L104.361 25.9643L105.288 24.8585L106.086 25.4994L106.988 24.4241L108.84 25.299L107.632 26.7395L108.668 27.5718L107.741 28.6776L106.704 27.8453L104.203 30.8279C104.109 30.9395 104.061 31.0281 104.058 31.0936C104.062 31.1585 104.117 31.234 104.224 31.32L105.08 32.0067L104.152 33.1125L102.784 32.0138Z" fill="white"/>
<path d="M107.423 36.4322C107.117 36.0957 106.894 35.733 106.756 35.344C106.621 34.9522 106.595 34.565 106.678 34.1824C106.763 33.8031 106.987 33.4564 107.347 33.1423C107.735 32.8049 108.163 32.6279 108.633 32.6112C109.103 32.5945 109.598 32.7341 110.119 33.0301C110.643 33.3232 111.174 33.7654 111.712 34.3567L112.39 35.1016L112.174 35.1312L112.485 34.8607C112.842 34.5495 113.05 34.2545 113.107 33.9759C113.168 33.6943 113.065 33.4065 112.797 33.1125C112.542 32.8316 112.269 32.6828 111.978 32.6664C111.694 32.6502 111.397 32.748 111.087 32.9596L109.992 31.2431C110.343 31.0368 110.728 30.927 111.147 30.9136C111.572 30.9006 112.015 31.0063 112.477 31.2308C112.939 31.4553 113.401 31.8224 113.865 32.332C114.29 32.7992 114.573 33.2614 114.714 33.7186C114.858 34.1729 114.835 34.6317 114.646 35.095C114.46 35.5615 114.082 36.0435 113.511 36.5408L111.673 38.142C111.559 38.2408 111.497 38.321 111.487 38.3824C111.48 38.447 111.523 38.53 111.615 38.6313L111.834 38.8714L110.742 39.8225L110.108 39.1266C109.761 38.7444 109.593 38.3693 109.605 38.0013C109.624 37.6337 109.817 37.2899 110.184 36.97L110.44 36.7475L110.571 37.0896C110.389 37.1722 110.179 37.2439 109.941 37.3047C109.703 37.3656 109.444 37.3865 109.163 37.3674C108.889 37.3488 108.604 37.2691 108.308 37.1284C108.012 36.9876 107.717 36.7556 107.423 36.4322ZM108.828 35.9636C109.036 36.1923 109.274 36.3483 109.542 36.4316C109.809 36.515 110.096 36.5142 110.401 36.4293C110.711 36.3415 111.026 36.158 111.346 35.8788L111.461 35.7785L110.899 35.161C110.581 34.8115 110.286 34.5794 110.014 34.4648C109.746 34.3535 109.507 34.3183 109.299 34.3591C109.094 34.3971 108.928 34.4713 108.801 34.5818C108.701 34.6691 108.618 34.7821 108.553 34.9209C108.491 35.063 108.473 35.2216 108.501 35.3966C108.535 35.572 108.644 35.761 108.828 35.9636Z" fill="white"/>
<path d="M113.912 44.7691C113.52 44.1319 113.312 43.5013 113.289 42.8772C113.267 42.2568 113.423 41.6779 113.755 41.1405C114.087 40.6031 114.588 40.1371 115.259 39.7426C115.925 39.3503 116.579 39.1366 117.22 39.1015C117.861 39.0663 118.455 39.2045 119.001 39.516C119.551 39.8252 120.022 40.2985 120.414 40.9357C120.695 41.393 120.872 41.868 120.945 42.3608C121.019 42.8536 120.973 43.3348 120.808 43.8046C120.649 44.2758 120.355 44.7063 119.927 45.0961L118.608 43.7134C118.997 43.3717 119.235 43.0279 119.32 42.682C119.408 42.3338 119.351 41.9948 119.148 41.665C118.869 41.2114 118.478 40.9823 117.974 40.9775C117.473 40.9766 116.92 41.1542 116.314 41.5103C115.713 41.8643 115.299 42.2559 115.072 42.6852C114.849 43.1123 114.88 43.5563 115.163 44.0174C115.359 44.336 115.622 44.5465 115.951 44.6489C116.286 44.7529 116.688 44.7359 117.156 44.5982L117.806 46.3056C117.385 46.4516 116.98 46.5139 116.591 46.4925C116.206 46.4689 115.846 46.3796 115.511 46.2247C115.182 46.0712 114.883 45.8694 114.614 45.6191C114.342 45.3711 114.107 45.0878 113.912 44.7691Z" fill="white"/>
<path d="M117.726 51.7993C117.525 51.3126 117.49 50.8899 117.622 50.5313C117.759 50.1751 118.056 49.9069 118.512 49.7267L122.461 48.1664L122.074 47.2296L123.429 46.6939L123.816 47.6308L125.134 47.1099L126.331 48.7459L124.565 49.4437L125.067 50.6604L123.711 51.1961L123.209 49.9793L119.553 51.4241C119.416 51.4782 119.33 51.5333 119.295 51.5894C119.267 51.648 119.278 51.7402 119.33 51.8659L119.744 52.8697L118.389 53.4053L117.726 51.7993Z" fill="white"/>
<path d="M120.755 63.2123C120.69 62.6693 120.762 62.2073 120.973 61.8263C121.184 61.4496 121.504 61.1508 121.932 60.9297C122.36 60.7086 122.867 60.5644 123.453 60.4969L127.836 59.9922L128.07 61.934L123.92 62.4118C123.339 62.4788 122.917 62.6264 122.657 62.8546C122.4 63.0823 122.297 63.4025 122.347 63.8152C122.376 64.0584 122.468 64.2813 122.623 64.4836C122.783 64.6898 123.024 64.8448 123.348 64.9485C123.671 65.0523 124.096 65.0737 124.625 65.0129L128.388 64.5795L128.621 66.5213L121.428 67.3496L121.203 65.473L122.888 65.279L122.6 65.3583C122.087 65.2061 121.666 64.9484 121.339 64.5853C121.016 64.226 120.822 63.7684 120.755 63.2123Z" fill="white"/>
<path d="M121.194 73.4439C121.231 72.9115 121.344 72.4149 121.534 71.9541C121.727 71.4936 122.003 71.1132 122.36 70.8127C122.717 70.5123 123.166 70.3364 123.708 70.2851L123.944 72.0898C123.535 72.1018 123.218 72.2207 122.991 72.4467C122.769 72.6772 122.642 73.0173 122.611 73.4667C122.58 73.8988 122.645 74.2253 122.804 74.4465C122.968 74.6679 123.168 74.7866 123.404 74.8025C123.614 74.8166 123.8 74.7458 123.964 74.5901C124.127 74.4389 124.253 74.1646 124.344 73.7673L124.496 73.1331C124.554 72.8827 124.626 72.6157 124.714 72.3322C124.805 72.0533 124.928 71.792 125.085 71.5482C125.245 71.3047 125.456 71.1106 125.717 70.9659C125.978 70.8212 126.305 70.7621 126.697 70.7884C127.175 70.8205 127.574 70.9723 127.896 71.2438C128.221 71.52 128.458 71.8866 128.605 72.3437C128.756 72.8011 128.812 73.3156 128.772 73.8873C128.735 74.4153 128.621 74.8921 128.43 75.3177C128.243 75.7436 127.985 76.0924 127.657 76.364C127.333 76.6404 126.943 76.8071 126.486 76.8641L126.236 75.0585C126.421 75.0403 126.597 74.9929 126.764 74.9164C126.93 74.8443 127.069 74.7242 127.179 74.5563C127.294 74.3886 127.362 74.1564 127.383 73.8597C127.406 73.5237 127.358 73.2508 127.238 73.0411C127.118 72.8357 126.942 72.7252 126.71 72.7097C126.541 72.6983 126.399 72.7435 126.284 72.8454C126.169 72.9517 126.071 73.0986 125.991 73.2861C125.915 73.4783 125.846 73.6951 125.784 73.9364L125.605 74.661C125.517 75.0321 125.382 75.3804 125.203 75.7059C125.027 76.0361 124.789 76.2985 124.489 76.4932C124.188 76.6878 123.806 76.7695 123.342 76.7384C122.829 76.7039 122.406 76.5374 122.073 76.2388C121.74 75.9446 121.498 75.5535 121.349 75.0656C121.204 74.5823 121.152 74.0417 121.194 73.4439Z" fill="white"/>
<path d="M123.802 86.9636L125.036 86.1314L125.808 87.6522L126.638 86.2273L127.817 87.1165L126.553 88.3071L128.246 88.6434L127.748 90.0163L126.217 89.2348L126.43 90.9445L124.944 90.9026L125.217 89.2848L123.64 89.9842L123.218 88.5777L125.117 88.3243L123.802 86.9636Z" fill="white"/>
<path d="M111.559 99.7091C112.133 98.9543 112.798 98.4191 113.556 98.1036C114.311 97.7916 115.106 97.702 115.941 97.8349C116.777 97.974 117.6 98.3383 118.411 98.928C119.211 99.5099 119.798 100.168 120.17 100.902C120.543 101.636 120.685 102.402 120.597 103.199C120.51 103.997 120.175 104.778 119.594 105.543C118.94 106.403 118.165 106.973 117.268 107.252C116.371 107.538 115.435 107.473 114.458 107.057L115.321 105.118C115.922 105.391 116.467 105.469 116.957 105.351C117.445 105.237 117.857 104.959 118.193 104.516C118.516 104.092 118.683 103.652 118.694 103.197C118.703 102.745 118.572 102.298 118.301 101.856C118.03 101.42 117.63 101.009 117.099 100.622C116.568 100.236 116.045 99.9787 115.53 99.8496C115.019 99.7232 114.544 99.7292 114.104 99.8675C113.669 100.008 113.295 100.284 112.983 100.695C112.647 101.137 112.493 101.603 112.522 102.093C112.551 102.583 112.759 103.053 113.147 103.504L111.513 104.94C110.856 104.146 110.537 103.291 110.556 102.372C110.574 101.453 110.908 100.566 111.559 99.7091Z" fill="white"/>
<path d="M104.429 107.425C104.978 106.956 105.569 106.66 106.202 106.537C106.831 106.418 107.45 106.467 108.059 106.684C108.672 106.904 109.223 107.289 109.714 107.84C110.208 108.393 110.524 108.98 110.662 109.6C110.803 110.223 110.769 110.83 110.56 111.42C110.351 112.017 109.971 112.55 109.423 113.019C108.87 113.491 108.279 113.786 107.65 113.906C107.02 114.032 106.399 113.984 105.787 113.764C105.178 113.547 104.626 113.162 104.132 112.608C103.638 112.055 103.321 111.466 103.18 110.843C103.043 110.223 103.078 109.615 103.288 109.018C103.5 108.425 103.88 107.894 104.429 107.425ZM105.39 108.511C105.016 108.831 104.858 109.235 104.916 109.726C104.974 110.223 105.238 110.735 105.708 111.262C106.182 111.792 106.665 112.117 107.157 112.237C107.646 112.359 108.079 112.259 108.457 111.937C108.83 111.617 108.99 111.211 108.935 110.717C108.877 110.227 108.612 109.716 108.138 109.186C107.665 108.656 107.184 108.329 106.695 108.207C106.202 108.088 105.767 108.189 105.39 108.511Z" fill="white"/>
<path d="M99.2034 111.805L102.817 117.946L101.143 118.889L100.31 117.473L100.502 117.706C100.55 118.218 100.468 118.689 100.256 119.116C100.045 119.548 99.6942 119.902 99.2022 120.179C98.714 120.454 98.2513 120.571 97.8142 120.529C97.3732 120.49 96.9645 120.322 96.5881 120.024C96.2116 119.726 95.8762 119.327 95.5817 118.827L93.3799 115.085L95.1118 114.11L97.2501 117.743C97.5066 118.179 97.7788 118.475 98.0666 118.631C98.3566 118.791 98.6837 118.768 99.0479 118.563C99.478 118.32 99.7091 117.95 99.7412 117.453C99.7695 116.957 99.5651 116.338 99.1278 115.595L97.4714 112.781L99.2034 111.805Z" fill="white"/>
<path d="M88.7058 117.005C89.2075 116.819 89.6402 116.794 90.0038 116.931C90.3648 117.073 90.6324 117.369 90.8065 117.819L92.3146 121.715L93.2805 121.357L93.7982 122.695L92.8323 123.053L93.3358 124.354L91.6378 125.488L90.9634 123.745L89.709 124.21L89.1913 122.872L90.4456 122.407L89.0492 118.8C88.9969 118.665 88.9425 118.58 88.8859 118.544C88.8266 118.515 88.7322 118.524 88.6026 118.572L87.5678 118.956L87.0501 117.618L88.7058 117.005Z" fill="white"/>
<path d="M82.4445 118.736C82.8955 118.646 83.3278 118.639 83.7412 118.716C84.1556 118.798 84.5112 118.97 84.8082 119.231C85.1009 119.494 85.2959 119.857 85.3933 120.319C85.4979 120.816 85.4401 121.268 85.2197 121.674C84.9994 122.08 84.6279 122.43 84.1052 122.722C83.5835 123.02 82.9264 123.248 82.1338 123.408L81.1354 123.609L81.2171 123.412L81.3009 123.81C81.3974 124.268 81.5545 124.592 81.7722 124.78C81.9908 124.973 82.2971 125.029 82.6912 124.95C83.0678 124.874 83.3361 124.717 83.496 124.48C83.6525 124.247 83.7148 123.947 83.6828 123.578L85.7499 123.51C85.7567 123.91 85.6611 124.291 85.4633 124.653C85.262 125.019 84.9465 125.342 84.5167 125.621C84.087 125.899 83.5305 126.107 82.8474 126.245C82.2212 126.371 81.6706 126.379 81.1956 126.27C80.7215 126.164 80.3268 125.915 80.0115 125.523C79.6918 125.132 79.4548 124.571 79.3006 123.838L78.8042 121.48C78.7735 121.334 78.7335 121.241 78.6842 121.202C78.6305 121.164 78.5357 121.158 78.4 121.186L78.0781 121.251L77.7832 119.85L78.7159 119.662C79.2283 119.559 79.6442 119.604 79.9636 119.799C80.2795 119.999 80.4871 120.334 80.5863 120.806L80.6553 121.133L80.2867 121.074C80.3048 120.878 80.3466 120.664 80.4118 120.432C80.4771 120.2 80.5885 119.97 80.7458 119.742C80.8997 119.519 81.1129 119.317 81.3855 119.137C81.658 118.957 82.011 118.824 82.4445 118.736ZM82.1556 120.161C81.8491 120.223 81.592 120.346 81.3844 120.531C81.1768 120.716 81.034 120.959 80.9559 121.26C80.8788 121.566 80.8835 121.925 80.9701 122.336L81.0012 122.484L81.8288 122.317C82.2974 122.223 82.6504 122.089 82.8879 121.916C83.121 121.744 83.2716 121.56 83.3397 121.363C83.4088 121.17 83.4261 120.993 83.3919 120.83C83.3648 120.701 83.3062 120.575 83.216 120.45C83.1215 120.326 82.9899 120.232 82.8211 120.168C82.6489 120.109 82.4271 120.106 82.1556 120.161Z" fill="white"/>
<path d="M71.8281 120.051C72.588 120.038 73.2501 120.178 73.8142 120.47C74.3739 120.762 74.8084 121.184 75.1177 121.734C75.4271 122.284 75.5886 122.942 75.6022 123.708C75.6157 124.469 75.4776 125.129 75.188 125.69C74.8983 126.25 74.479 126.684 73.93 126.991C73.381 127.302 72.7266 127.464 71.9666 127.477C71.4213 127.486 70.9122 127.399 70.4394 127.214C69.9666 127.03 69.5637 126.75 69.2306 126.375C68.8931 126.005 68.6591 125.54 68.5285 124.983L70.4124 124.557C70.5196 125.058 70.7051 125.431 70.9688 125.676C71.2326 125.925 71.5612 126.047 71.9545 126.04C72.4954 126.031 72.894 125.814 73.1503 125.39C73.4021 124.966 73.5219 124.408 73.5096 123.717C73.4975 123.03 73.3581 122.484 73.0915 122.077C72.825 121.675 72.4169 121.478 71.867 121.487C71.487 121.494 71.1694 121.611 70.9141 121.838C70.6544 122.07 70.4683 122.419 70.3558 122.885L68.5194 122.581C68.6011 122.151 68.7488 121.777 68.9622 121.458C69.1757 121.144 69.4349 120.884 69.7398 120.677C70.0403 120.475 70.3685 120.323 70.7244 120.221C71.0802 120.114 71.4481 120.058 71.8281 120.051Z" fill="white"/>
<path d="M63.6469 119.77C64.1782 119.843 64.5698 120.025 64.8216 120.316C65.0684 120.61 65.1577 120.996 65.0895 121.472L64.4988 125.598L65.5216 125.738L65.3188 127.155L64.2961 127.015L64.0989 128.392L62.0527 128.589L62.3169 126.743L60.9886 126.561L61.1914 125.145L62.5197 125.327L63.0666 121.506C63.0871 121.363 63.0811 121.263 63.0487 121.206C63.0112 121.152 62.9239 121.116 62.7866 121.097L61.6908 120.947L61.8935 119.53L63.6469 119.77Z" fill="white"/>
<path d="M52.0245 116.636C52.5379 116.852 52.9107 117.145 53.1427 117.514C53.3707 117.881 53.4756 118.301 53.4574 118.774C53.4393 119.248 53.3137 119.749 53.0806 120.28L51.3379 124.246L49.5019 123.474L51.1519 119.719C51.3832 119.192 51.4629 118.762 51.3911 118.427C51.3175 118.096 51.0856 117.848 50.6954 117.684C50.4654 117.587 50.2221 117.554 49.9655 117.584C49.703 117.617 49.4452 117.744 49.1919 117.966C48.9386 118.188 48.707 118.538 48.4968 119.016L47.0004 122.422L45.1644 121.65L48.0248 115.14L49.7992 115.886L49.1291 117.411L49.2025 117.128C49.5939 116.769 50.0321 116.541 50.5171 116.445C50.9963 116.351 51.4987 116.415 52.0245 116.636Z" fill="white"/>
<path d="M42.8288 111.938C43.2812 112.236 43.6641 112.58 43.9772 112.971C44.2879 113.366 44.4868 113.789 44.574 114.242C44.6612 114.695 44.5921 115.164 44.3667 115.648L42.6512 114.945C42.8451 114.593 42.8987 114.265 42.812 113.96C42.7192 113.656 42.4818 113.378 42.0998 113.127C41.7326 112.885 41.4113 112.776 41.1359 112.8C40.858 112.828 40.6529 112.938 40.5206 113.131C40.4032 113.301 40.3726 113.495 40.4286 113.711C40.481 113.925 40.6603 114.169 40.9665 114.445L41.4518 114.891C41.6444 115.065 41.8444 115.26 42.0517 115.476C42.2529 115.693 42.4223 115.928 42.56 116.182C42.6952 116.44 42.7615 116.716 42.7589 117.009C42.7563 117.303 42.6452 117.609 42.4255 117.929C42.1583 118.317 41.8242 118.579 41.423 118.716C41.0157 118.854 40.5729 118.87 40.0947 118.766C39.6141 118.666 39.1308 118.456 38.645 118.136C38.1962 117.84 37.8313 117.505 37.5503 117.13C37.2668 116.759 37.087 116.366 37.0108 115.952C36.9283 115.539 36.9761 115.125 37.1541 114.71L38.877 115.402C38.8006 115.568 38.7546 115.74 38.7389 115.92C38.7195 116.097 38.7565 116.274 38.8499 116.452C38.9408 116.633 39.1124 116.806 39.3646 116.973C39.6501 117.161 39.9157 117.256 40.1612 117.26C40.403 117.261 40.5888 117.167 40.7186 116.978C40.8135 116.841 40.8445 116.698 40.8117 116.549C40.7752 116.399 40.6941 116.243 40.5684 116.081C40.4364 115.92 40.2791 115.753 40.0964 115.58L39.5445 115.066C39.2605 114.805 39.0194 114.517 38.8212 114.202C38.6168 113.888 38.5036 113.556 38.4817 113.204C38.4597 112.852 38.5786 112.487 38.8383 112.11C39.1254 111.692 39.4844 111.417 39.9153 111.285C40.3425 111.149 40.8094 111.141 41.316 111.258C41.8164 111.377 42.3207 111.603 42.8288 111.938Z" fill="white"/>
<path d="M29.5581 107.387L29.6805 108.848L27.9479 108.745L28.797 110.159L27.4214 110.716L26.9963 109.05L25.8547 110.318L24.8861 109.212L26.3419 108.303L24.7208 107.631L25.4987 106.392L26.7961 107.43L26.9625 105.744L28.4194 106.087L27.6972 107.824L29.5581 107.387Z" fill="white"/>
<path d="M24.3414 90.6437C24.7247 91.5061 24.8674 92.3374 24.7696 93.1374C24.67 93.9333 24.3533 94.6523 23.8196 95.2943C23.28 95.9341 22.5469 96.451 21.6203 96.8452C20.706 97.2341 19.8307 97.4038 18.9945 97.3541C18.1582 97.3044 17.4086 97.0438 16.7456 96.5722C16.0826 96.1006 15.5568 95.4276 15.1682 94.5532C14.7314 93.5704 14.6127 92.6288 14.8122 91.7284C15.0057 90.8256 15.53 90.0637 16.3849 89.4424L17.6736 91.1407C17.1326 91.514 16.792 91.9379 16.6519 92.4124C16.51 92.883 16.5514 93.3709 16.776 93.8764C16.9917 94.3617 17.2984 94.7226 17.6959 94.9589C18.0917 95.1912 18.5531 95.3025 19.0802 95.2929C19.6015 95.281 20.1655 95.146 20.7723 94.8879C21.3791 94.6297 21.8679 94.3145 22.2387 93.9421C22.6054 93.5715 22.8368 93.1654 22.9331 92.7238C23.0252 92.284 22.967 91.8294 22.7584 91.3601C22.5338 90.8546 22.1972 90.4922 21.7487 90.2728C21.3002 90.0535 20.7797 89.9958 20.1874 90.1L19.7287 87.9985C20.7587 87.837 21.6763 87.9928 22.4813 88.4659C23.2864 88.939 23.9064 89.665 24.3414 90.6437Z" fill="white"/>
<path d="M21.066 80.7402C21.2062 81.4398 21.172 82.0882 20.9636 82.6853C20.7543 83.2782 20.4012 83.7782 19.9042 84.1855C19.4028 84.5937 18.7857 84.868 18.053 85.0085C17.316 85.1498 16.6387 85.1236 16.0213 84.93C15.3996 84.7372 14.8796 84.4046 14.4615 83.932C14.0381 83.456 13.7563 82.8682 13.6162 82.1686C13.4752 81.4646 13.5093 80.8162 13.7186 80.2234C13.9226 79.6271 14.2753 79.1249 14.7767 78.7168C15.2737 78.3095 15.8908 78.0352 16.6279 77.8938C17.365 77.7525 18.0444 77.7782 18.6662 77.971C19.2836 78.1647 19.8039 78.4995 20.2273 78.9755C20.6463 79.4523 20.9259 80.0405 21.066 80.7402ZM19.6235 81.0101C19.528 80.5336 19.2488 80.1972 18.7857 80.0007C18.3174 79.8007 17.7323 79.7681 17.0303 79.9027C16.3239 80.0381 15.7946 80.2844 15.4425 80.6417C15.0895 80.9946 14.9611 81.4115 15.0575 81.8922C15.1529 82.3687 15.4326 82.7073 15.8965 82.9081C16.3596 83.1045 16.9443 83.1351 17.6506 82.9996C18.357 82.8642 18.8867 82.62 19.2397 82.2671C19.5918 81.9098 19.7198 81.4908 19.6235 81.0101Z" fill="white"/>
<path d="M19.8117 74.0982L12.5689 74.0862L12.5722 72.1966L14.242 72.1994L13.9402 72.2448C13.4622 72.0297 13.0871 71.7251 12.8151 71.331C12.5386 70.9369 12.4008 70.462 12.4018 69.9065C12.4027 69.3554 12.5309 68.9051 12.7864 68.5556C13.0418 68.2017 13.3955 67.9399 13.8473 67.77C14.2992 67.6002 14.8202 67.5158 15.4103 67.5167L19.8231 67.5241L19.8197 69.4793L15.5344 69.4721C15.0202 69.4713 14.6222 69.5537 14.3402 69.7195C14.0538 69.8852 13.9102 70.1737 13.9095 70.5848C13.9087 71.0704 14.1204 71.4512 14.5446 71.7275C14.9689 71.9994 15.6192 72.1361 16.4955 72.1375L19.8151 72.143L19.8117 74.0982Z" fill="white"/>
<path d="M20.4622 62.5774C20.3763 63.0955 20.182 63.4746 19.8795 63.7146C19.5733 63.9496 19.1775 64.0285 18.6921 63.9515L14.4885 63.2841L14.3231 64.2815L12.88 64.0524L13.0454 63.055L11.642 62.8322L11.4855 60.8266L13.3655 61.1251L13.5804 59.8298L15.0235 60.0589L14.8086 61.3542L18.701 61.9721C18.8467 61.9952 18.9492 61.9916 19.0086 61.9611C19.0643 61.9257 19.1033 61.841 19.1255 61.7071L19.3027 60.6386L20.7458 60.8677L20.4622 62.5774Z" fill="white"/>
<path d="M22.0457 56.4258C21.9012 56.8536 21.6915 57.2234 21.4166 57.5353C21.1375 57.8459 20.8079 58.0618 20.4279 58.183C20.0493 58.3002 19.6308 58.2846 19.1723 58.1364C18.6799 57.9771 18.3087 57.7028 18.0589 57.3133C17.8091 56.9239 17.6848 56.4346 17.6861 55.8453C17.6832 55.2547 17.8087 54.5835 18.0626 53.8318L18.3825 52.8849L18.5166 53.0527L18.1218 52.925C17.6676 52.7781 17.3027 52.75 17.0273 52.8406C16.7476 52.9298 16.5446 53.1613 16.4183 53.535C16.2976 53.8922 16.3027 54.1979 16.4334 54.4521C16.5613 54.7007 16.7965 54.9035 17.139 55.0603L16.1681 56.847C15.8099 56.6529 15.5201 56.3818 15.2986 56.0338C15.0743 55.6803 14.946 55.2518 14.9136 54.7484C14.8812 54.245 14.9744 53.6693 15.1933 53.0215C15.3939 52.4276 15.6613 51.9566 15.9955 51.6086C16.3255 51.2592 16.7427 51.0486 17.2472 50.9768C17.7532 50.9009 18.3691 50.9803 19.095 51.215L21.4319 51.9707C21.5762 52.0174 21.678 52.0296 21.7374 52.0073C21.7981 51.9808 21.8502 51.9033 21.8937 51.7745L21.9968 51.4693L23.3849 51.9181L23.0861 52.8027C22.9219 53.2886 22.674 53.6185 22.3422 53.7922C22.0075 53.9604 21.6067 53.969 21.1398 53.818L20.815 53.713L21.0518 53.4302C21.2161 53.5432 21.3847 53.6853 21.5576 53.8564C21.7306 54.0275 21.8789 54.2366 22.0025 54.4839C22.1233 54.7257 22.1954 55.007 22.2189 55.3278C22.2423 55.6487 22.1846 56.0147 22.0457 56.4258ZM20.9277 55.47C21.0259 55.1793 21.045 54.8999 20.9849 54.6317C20.9249 54.3635 20.7807 54.1211 20.5525 53.9045C20.3201 53.6865 20.0001 53.5117 19.5926 53.3799L19.4462 53.3325L19.181 54.1175C19.0309 54.5618 18.9731 54.9278 19.0078 55.2154C19.0439 55.4989 19.1321 55.7186 19.2725 55.8746C19.4086 56.0292 19.5573 56.1325 19.7186 56.1847C19.846 56.2259 19.9874 56.2394 20.1429 56.2251C20.2998 56.2068 20.4488 56.1421 20.5899 56.0311C20.7281 55.9145 20.8407 55.7275 20.9277 55.47Z" fill="white"/>
<path d="M26.1835 46.7602C25.8147 47.4104 25.3598 47.9012 24.8188 48.2328C24.28 48.5606 23.6897 48.7178 23.0479 48.7044C22.4061 48.6911 21.7431 48.4986 21.059 48.1272C20.3789 47.7578 19.8632 47.3102 19.5121 46.7844C19.1611 46.2586 18.9871 45.6864 18.9904 45.0678C18.9897 44.4471 19.1738 43.8117 19.5427 43.1615C19.8074 42.6949 20.1396 42.3076 20.5395 41.9994C20.9393 41.6912 21.3884 41.4899 21.8869 41.3954C22.3837 41.295 22.9115 41.329 23.4704 41.4974L22.9045 43.3062C22.4072 43.1462 21.9842 43.1166 21.6355 43.2174C21.283 43.3161 21.0112 43.5338 20.8203 43.8703C20.5577 44.3331 20.5501 44.7792 20.7973 45.2086C21.0468 45.6342 21.4803 46.0147 22.0979 46.3501C22.7117 46.6833 23.2652 46.8388 23.7585 46.8166C24.2479 46.7922 24.626 46.5448 24.8929 46.0744C25.0773 45.7493 25.1328 45.4217 25.0592 45.0916C24.984 44.7556 24.7685 44.4235 24.4127 44.0952L25.6003 42.6915C25.9399 42.976 26.1974 43.2884 26.3725 43.6286C26.5437 43.9667 26.6444 44.3166 26.6745 44.6781C26.7029 45.0337 26.6733 45.3878 26.5857 45.7404C26.502 46.0952 26.368 46.4351 26.1835 46.7602Z" fill="white"/>
<path d="M30.4932 40.028C30.1628 40.4416 29.806 40.6823 29.4228 40.7502C29.0388 40.8119 28.653 40.6946 28.2654 40.3984L24.9098 37.8332L24.2739 38.6294L23.1219 37.7488L23.7578 36.9526L22.6374 36.0962L23.4874 34.2647L24.9882 35.4119L25.814 34.3779L26.966 35.2585L26.1402 36.2926L29.2475 38.6678C29.3638 38.7567 29.4554 38.8018 29.5225 38.8031C29.5888 38.7982 29.6646 38.7424 29.7499 38.6355L30.4312 37.7825L31.5832 38.6631L30.4932 40.028Z" fill="white"/>
<path d="M39.0896 31.7293C38.6424 32.0572 38.1975 32.2277 37.7549 32.2407C37.3159 32.2511 36.8912 32.1307 36.4808 31.8796C36.0704 31.6284 35.6883 31.2718 35.3343 30.8098L32.6875 27.3555L34.2866 26.1827L36.7926 29.4534C37.1439 29.9119 37.4858 30.1941 37.8184 30.3C38.1484 30.4024 38.4832 30.329 38.8231 30.0798C39.0234 29.9329 39.1741 29.7431 39.2752 29.5104C39.3772 29.2716 39.393 28.9895 39.3224 28.664C39.2518 28.3386 39.057 27.9676 38.7379 27.5511L36.4652 24.585L38.0643 23.4122L42.4085 29.082L40.8631 30.2154L39.8454 28.8872L40.06 29.0907C40.1833 29.6016 40.1666 30.0867 40.01 30.5459C39.8543 30.999 39.5475 31.3935 39.0896 31.7293Z" fill="white"/>
<path d="M47.8262 26.2685C47.3368 26.5041 46.8409 26.6575 46.3386 26.7288C45.8343 26.796 45.3597 26.754 44.9148 26.6025C44.4699 26.4511 44.0889 26.1592 43.7718 25.7269L45.2486 24.621C45.4643 24.9608 45.7289 25.1698 46.0423 25.248C46.3578 25.3204 46.7221 25.2572 47.1353 25.0583C47.5324 24.8671 47.7888 24.6486 47.9043 24.4028C48.0179 24.1531 48.0224 23.9243 47.9178 23.7163C47.825 23.5318 47.6688 23.4096 47.4493 23.3495C47.2338 23.2876 46.9276 23.3179 46.5309 23.4407L45.8939 23.6304C45.6434 23.707 45.371 23.7797 45.0767 23.8483C44.7843 23.911 44.4912 23.9375 44.1974 23.9279C43.9015 23.9143 43.6241 23.8334 43.3652 23.685C43.1062 23.5367 42.8899 23.2899 42.7162 22.9445C42.505 22.5246 42.4387 22.1104 42.5173 21.7021C42.598 21.2879 42.8034 20.9038 43.1336 20.5498C43.4619 20.1919 43.8887 19.8865 44.4142 19.6335C44.8996 19.3998 45.3784 19.2571 45.8507 19.2052C46.3209 19.1495 46.7585 19.1923 47.1635 19.3337C47.5705 19.4693 47.9138 19.7159 48.1934 20.0737L46.7225 21.1913C46.6135 21.0439 46.4834 20.9189 46.3321 20.8162C46.1848 20.7116 46.0092 20.6548 45.8053 20.6457C45.5994 20.6326 45.3601 20.6918 45.0873 20.8231C44.7785 20.9718 44.5614 21.1495 44.436 21.356C44.3147 21.5607 44.3054 21.765 44.4081 21.9691C44.4831 22.1183 44.5944 22.2158 44.7421 22.2617C44.8937 22.3057 45.0726 22.3146 45.2788 22.2885C45.4869 22.2565 45.7132 22.2061 45.9576 22.1372L46.6878 21.9246C47.0604 21.8135 47.4357 21.7522 47.8137 21.7409C48.1937 21.7237 48.5451 21.7934 48.868 21.9499C49.1909 22.1065 49.455 22.3888 49.6603 22.797C49.8873 23.2483 49.9524 23.6898 49.8556 24.1215C49.7629 24.5513 49.5383 24.9519 49.182 25.3233C48.8277 25.6889 48.3758 26.004 47.8262 26.2685Z" fill="white"/>
<path d="M58.496 17.2792L57.1419 16.6515L58.1003 15.2357L56.4244 15.2472L56.6204 13.8034L58.3068 14.2771L57.7564 12.6755L59.2201 12.4089L59.2957 14.097L60.7015 13.0601L61.4088 14.3394L59.8409 14.9186L61.2493 15.9035L60.2168 16.9658L59.0413 15.4847L58.496 17.2792Z" fill="white"/>
</svg>
