<svg width="175" height="51" viewBox="0 0 175 51" fill="none" xmlns="http://www.w3.org/2000/svg">
<circle cx="25" cy="25.5391" r="25" fill="#189292"/>
<path d="M37.6803 30.936C38.6988 28.8486 39.131 26.7765 38.9657 24.7766C38.8004 22.7768 38.0315 20.7927 36.6812 18.8817C35.3244 16.9613 33.3342 15.0502 30.7638 13.2013C29.8792 12.5644 28.2014 11.6677 26.4475 11.1003C24.8945 10.5985 22.7108 10.1766 21.128 11.0204C19.7735 11.7426 19.1073 13.2144 19.1474 15.3942C19.1855 17.5334 20.0659 19.7332 21.835 22.1198C23.3518 24.1656 25.3285 26.0879 27.0728 27.7836C28.7683 29.4314 30.3698 30.9874 31.2108 32.3314C31.2227 32.3507 32.3596 34.2749 31.7071 36.1914C31.262 37.5038 30.0835 38.5333 28.2052 39.257C24.0863 40.5783 19.8509 38.5703 17.0217 36.6523C15.2151 35.4272 13.735 34.0812 12.8062 33.1621C14.9937 33.6137 16.6334 33.2177 17.2881 33.0042C17.6586 33.466 18.0522 33.9083 18.4674 34.3294C19.7887 35.6653 21.2268 36.6477 22.76 37.2595C22.8642 37.3011 22.9805 37.2991 23.0832 37.254C23.1859 37.2089 23.2667 37.1244 23.3079 37.019C23.349 36.9137 23.347 36.7961 23.3024 36.6923C23.2578 36.5884 23.1742 36.5067 23.07 36.4651C21.1509 35.6997 19.3821 34.2977 17.8112 32.299C17.7828 32.2478 17.7437 32.2035 17.6966 32.1693C17.6249 32.0964 16.7235 31.1078 16.4391 27.3478C17.6115 29.1794 19.4421 31.1476 21.6029 32.8645C24.4482 35.1257 27.3676 36.5493 29.4123 36.6728C29.4679 36.6765 29.5237 36.6691 29.5764 36.651C29.6292 36.6329 29.6778 36.6044 29.7196 36.5672C29.7614 36.53 29.7955 36.4847 29.82 36.4341C29.8444 36.3835 29.8587 36.3285 29.862 36.2723C29.8654 36.2161 29.8577 36.1597 29.8394 36.1065C29.8211 36.0533 29.7925 36.0043 29.7554 35.9623C29.7183 35.9203 29.6733 35.8862 29.6231 35.8618C29.5728 35.8375 29.5183 35.8234 29.4627 35.8205C27.5829 35.707 24.8399 34.351 22.1248 32.1921C19.4001 30.027 17.2313 27.4713 16.3219 25.356C16.2829 25.2656 16.2142 25.1915 16.1274 25.1465C16.0405 25.1015 15.941 25.0883 15.8456 25.1091C15.7502 25.1299 15.6649 25.1835 15.6042 25.2608C15.5434 25.338 15.5111 25.4342 15.5125 25.5328C15.5774 29.5858 16.262 31.4575 16.7342 32.2724C15.8535 32.5005 13.9423 32.7885 11.5654 31.925C11.4775 31.8929 11.3815 31.8913 11.2925 31.9203C11.2035 31.9494 11.1266 32.0075 11.0738 32.0855C11.021 32.1635 10.9953 32.2571 11.0007 32.3515C11.0062 32.4459 11.0425 32.5357 11.1039 32.607C11.1371 32.6456 11.454 33.0112 12.0037 33.567C12.9318 34.5054 14.5234 35.9857 16.5338 37.3498C18.4247 38.6336 20.2911 39.5431 22.082 40.0518C24.3474 40.6968 26.4968 40.7014 28.4697 40.0657C30.1155 39.5361 31.6564 38.553 33.0509 37.1429C35.1449 35.033 36.701 32.9436 37.6803 30.936ZM31.9629 31.9396C31.9553 31.9254 31.9484 31.9134 31.9434 31.9061C31.9358 31.8922 31.9308 31.8848 31.9308 31.8848C31.0383 30.4543 29.397 28.859 27.6596 27.1698C24.1042 23.7136 20.0747 19.7973 19.9934 15.3803C19.9598 13.5491 20.4744 12.337 21.5235 11.7777C22.7291 11.1347 24.5433 11.3736 26.2658 11.9364C26.4361 12.3571 26.8457 13.5896 26.3204 14.6457C25.8932 15.5053 24.925 16.0739 23.4434 16.3422C23.3887 16.3518 23.3363 16.3722 23.2894 16.4023C23.2425 16.4324 23.2019 16.4715 23.17 16.5175C23.1381 16.5635 23.1155 16.6154 23.1034 16.6702C23.0914 16.725 23.0901 16.7817 23.0998 16.837C23.1094 16.8924 23.1297 16.9452 23.1595 16.9926C23.1893 17.04 23.228 17.0811 23.2735 17.1133C23.319 17.1456 23.3703 17.1685 23.4246 17.1807C23.4788 17.1929 23.5349 17.1941 23.5896 17.1844C24.9976 16.9316 26.0295 16.4163 26.6689 15.6493C28.1578 16.9015 30.621 19.1272 32.5657 21.6462C33.7454 23.174 34.5601 24.5906 34.9869 25.8571C35.4775 27.3123 35.4542 28.5776 34.9178 29.6179C34.8913 29.6676 34.8748 29.7222 34.8693 29.7785C34.8638 29.8348 34.8694 29.8916 34.8858 29.9457C34.9022 29.9997 34.9291 30.05 34.9649 30.0934C35.0006 30.1369 35.0446 30.1728 35.0942 30.1989C35.1438 30.2251 35.198 30.241 35.2537 30.2458C35.3095 30.2506 35.3656 30.2441 35.4188 30.2268C35.4721 30.2095 35.5214 30.1816 35.5639 30.1449C35.6064 30.1081 35.6412 30.0632 35.6664 30.0127C36.8434 27.7299 36.0242 24.738 33.2315 21.1208C31.202 18.4922 28.6324 16.1839 27.1232 14.9217C27.5459 13.9837 27.4428 12.9952 27.2691 12.305C28.4854 12.7952 29.5784 13.4001 30.2732 13.9003C35.1717 17.4261 37.8124 21.1104 38.122 24.8515C38.4274 28.5421 36.5865 32.3542 32.4966 36.5045C32.5012 36.4913 32.5062 36.4786 32.5104 36.4659C33.2342 34.3259 32.1622 32.2882 31.9629 31.9377V31.9396Z" fill="white"/>
<path d="M73.184 33.9311C71.9707 33.9311 70.8787 33.8097 69.908 33.5671C68.956 33.3431 68.1347 32.9977 67.444 32.5311C66.772 32.0457 66.24 31.4484 65.848 30.7391C65.4747 30.0111 65.26 29.1804 65.204 28.2471L68.732 27.0991C68.7693 27.9391 68.9747 28.6391 69.348 29.1991C69.74 29.7591 70.2907 30.1697 71 30.4311C71.7093 30.6924 72.5027 30.8231 73.38 30.8231C74.22 30.8231 74.9293 30.7204 75.508 30.5151C76.0867 30.3097 76.5253 30.0391 76.824 29.7031C77.1227 29.3484 77.272 28.9657 77.272 28.5551C77.272 28.0697 77.0853 27.6777 76.712 27.3791C76.3387 27.0804 75.8253 26.8284 75.172 26.6231C74.5373 26.4177 73.8093 26.2217 72.988 26.0351C72.0733 25.8297 71.168 25.5964 70.272 25.3351C69.3947 25.0737 68.592 24.7377 67.864 24.3271C67.1547 23.9164 66.5853 23.3844 66.156 22.7311C65.7453 22.0777 65.54 21.2564 65.54 20.2671C65.54 19.1284 65.82 18.1484 66.38 17.3271C66.9587 16.4871 67.7987 15.8337 68.9 15.3671C70.0013 14.9004 71.3267 14.6671 72.876 14.6671C74.444 14.6671 75.7787 14.9004 76.88 15.3671C78 15.8151 78.868 16.4591 79.484 17.2991C80.1 18.1204 80.436 19.1004 80.492 20.2391L76.852 21.2471C76.852 20.6684 76.7587 20.1644 76.572 19.7351C76.3853 19.3057 76.124 18.9511 75.788 18.6711C75.452 18.3724 75.032 18.1484 74.528 17.9991C74.0427 17.8497 73.4827 17.7751 72.848 17.7751C72.12 17.7751 71.4853 17.8684 70.944 18.0551C70.4213 18.2417 70.02 18.4937 69.74 18.8111C69.4787 19.1284 69.348 19.5017 69.348 19.9311C69.348 20.4351 69.5533 20.8551 69.964 21.1911C70.3933 21.5084 70.9533 21.7697 71.644 21.9751C72.3533 22.1804 73.128 22.3764 73.968 22.5631C74.7707 22.7311 75.5827 22.9457 76.404 23.2071C77.244 23.4497 78.0187 23.7764 78.728 24.1871C79.456 24.5791 80.0347 25.1204 80.464 25.8111C80.912 26.4831 81.136 27.3324 81.136 28.3591C81.136 29.4791 80.8373 30.4591 80.24 31.2991C79.6427 32.1391 78.7467 32.7924 77.552 33.2591C76.376 33.7071 74.92 33.9311 73.184 33.9311ZM90.9456 33.9311C89.7323 33.9311 88.6496 33.7631 87.6976 33.4271C86.7643 33.0911 85.971 32.6057 85.3176 31.9711C84.6643 31.3364 84.1603 30.5524 83.8056 29.6191C83.4696 28.6857 83.3016 27.6311 83.3016 26.4551C83.3016 25.2977 83.4603 24.2337 83.7776 23.2631C84.1136 22.2737 84.599 21.4244 85.2336 20.7151C85.8683 19.9871 86.643 19.4271 87.5576 19.0351C88.4723 18.6431 89.5083 18.4471 90.6656 18.4471C91.7856 18.4471 92.7843 18.6337 93.6616 19.0071C94.539 19.3617 95.267 19.9031 95.8456 20.6311C96.443 21.3591 96.8723 22.2551 97.1336 23.3191C97.4136 24.3644 97.5163 25.5684 97.4416 26.9311L85.9056 27.0431V24.8311L95.1176 24.7471L93.6896 25.8671C93.8203 24.8777 93.755 24.0657 93.4936 23.4311C93.2323 22.7964 92.8496 22.3297 92.3456 22.0311C91.8603 21.7324 91.319 21.5831 90.7216 21.5831C90.0123 21.5831 89.387 21.7697 88.8456 22.1431C88.3043 22.5164 87.8843 23.0671 87.5856 23.7951C87.287 24.5044 87.1376 25.3631 87.1376 26.3711C87.1376 27.9577 87.483 29.1244 88.1736 29.8711C88.883 30.6177 89.807 30.9911 90.9456 30.9911C91.4683 30.9911 91.907 30.9257 92.2616 30.7951C92.635 30.6457 92.9336 30.4591 93.1576 30.2351C93.4003 30.0111 93.587 29.7591 93.7176 29.4791C93.867 29.1991 93.9883 28.9191 94.0816 28.6391L97.5816 29.3951C97.4136 30.0857 97.1616 30.7111 96.8256 31.2711C96.5083 31.8124 96.079 32.2884 95.5376 32.6991C94.9963 33.0911 94.343 33.3897 93.5776 33.5951C92.831 33.8191 91.9536 33.9311 90.9456 33.9311ZM103.855 33.9311C103.033 33.9311 102.305 33.7724 101.671 33.4551C101.036 33.1191 100.541 32.6431 100.187 32.0271C99.8318 31.4111 99.6545 30.6457 99.6545 29.7311C99.6545 28.9284 99.8038 28.2564 100.103 27.7151C100.42 27.1737 100.877 26.7351 101.475 26.3991C102.072 26.0631 102.809 25.7831 103.687 25.5591C104.564 25.3351 105.563 25.1391 106.683 24.9711C107.28 24.8777 107.765 24.7937 108.139 24.7191C108.531 24.6257 108.82 24.4857 109.007 24.2991C109.193 24.0937 109.287 23.8044 109.287 23.4311C109.287 22.9084 109.1 22.4604 108.727 22.0871C108.353 21.7137 107.765 21.5271 106.963 21.5271C106.421 21.5271 105.917 21.6204 105.451 21.8071C105.003 21.9937 104.611 22.2737 104.275 22.6471C103.957 23.0204 103.724 23.4964 103.575 24.0751L100.019 22.9831C100.243 22.2177 100.56 21.5551 100.971 20.9951C101.4 20.4351 101.913 19.9684 102.511 19.5951C103.108 19.2031 103.789 18.9137 104.555 18.7271C105.32 18.5404 106.151 18.4471 107.047 18.4471C108.484 18.4471 109.651 18.6804 110.547 19.1471C111.461 19.5951 112.143 20.3044 112.591 21.2751C113.039 22.2271 113.263 23.4591 113.263 24.9711V27.4911C113.263 28.1444 113.272 28.8071 113.291 29.4791C113.328 30.1511 113.365 30.8324 113.403 31.5231C113.459 32.1951 113.515 32.8671 113.571 33.5391H110.015C109.94 33.0724 109.865 32.5404 109.791 31.9431C109.735 31.3271 109.688 30.7111 109.651 30.0951H109.147C108.885 30.8044 108.512 31.4484 108.027 32.0271C107.541 32.6057 106.944 33.0724 106.235 33.4271C105.544 33.7631 104.751 33.9311 103.855 33.9311ZM105.562 31.0191C105.917 31.0191 106.272 30.9537 106.627 30.8231C107 30.6924 107.355 30.5151 107.691 30.2911C108.045 30.0484 108.363 29.7497 108.643 29.3951C108.941 29.0404 109.184 28.6391 109.371 28.1911L109.315 25.8391L109.959 25.9791C109.623 26.2217 109.231 26.4177 108.783 26.5671C108.335 26.6977 107.868 26.8004 107.383 26.8751C106.916 26.9497 106.449 27.0337 105.983 27.1271C105.516 27.2204 105.096 27.3417 104.723 27.4911C104.368 27.6404 104.079 27.8457 103.855 28.1071C103.649 28.3497 103.547 28.6951 103.547 29.1431C103.547 29.7217 103.733 30.1791 104.107 30.5151C104.48 30.8511 104.965 31.0191 105.562 31.0191ZM125.693 33.9311C124.76 33.9311 123.948 33.7537 123.257 33.3991C122.567 33.0257 122.007 32.4937 121.577 31.8031C121.148 31.1124 120.849 30.2724 120.681 29.2831H120.149L120.121 33.5391H116.789V26.3151V13.5191H120.821V18.3351C120.821 18.7831 120.793 19.2684 120.737 19.7911C120.681 20.2951 120.597 20.8177 120.485 21.3591C120.392 21.9004 120.289 22.4604 120.177 23.0391H120.793C121.036 22.1057 121.363 21.3031 121.773 20.6311C122.203 19.9404 122.744 19.4177 123.397 19.0631C124.051 18.6897 124.825 18.5031 125.721 18.5031C126.953 18.5031 128.017 18.8204 128.913 19.4551C129.809 20.0897 130.5 20.9857 130.985 22.1431C131.489 23.3004 131.741 24.6724 131.741 26.2591C131.741 27.8084 131.499 29.1617 131.013 30.3191C130.528 31.4577 129.828 32.3444 128.913 32.9791C128.017 33.6137 126.944 33.9311 125.693 33.9311ZM124.265 30.6271C124.937 30.6271 125.516 30.4497 126.001 30.0951C126.487 29.7217 126.86 29.1991 127.121 28.5271C127.383 27.8551 127.513 27.0711 127.513 26.1751C127.513 25.2791 127.383 24.5044 127.121 23.8511C126.879 23.1977 126.524 22.6844 126.057 22.3111C125.591 21.9377 125.021 21.7511 124.349 21.7511C123.901 21.7511 123.491 21.8351 123.117 22.0031C122.744 22.1711 122.417 22.4044 122.137 22.7031C121.857 22.9831 121.615 23.3097 121.409 23.6831C121.204 24.0377 121.055 24.4111 120.961 24.8031C120.868 25.1951 120.821 25.5684 120.821 25.9231V26.4551C120.821 26.8844 120.887 27.3511 121.017 27.8551C121.148 28.3404 121.353 28.7977 121.633 29.2271C121.932 29.6377 122.296 29.9737 122.725 30.2351C123.155 30.4964 123.668 30.6271 124.265 30.6271ZM139.629 33.9311C137.912 33.9311 136.614 33.3524 135.737 32.1951C134.878 31.0191 134.449 29.2364 134.449 26.8471V18.8391H138.481V26.3431C138.481 27.7804 138.696 28.8537 139.125 29.5631C139.554 30.2537 140.208 30.5991 141.085 30.5991C141.608 30.5991 142.065 30.4684 142.457 30.2071C142.849 29.9457 143.185 29.5817 143.465 29.1151C143.745 28.6484 143.95 28.0977 144.081 27.4631C144.23 26.8284 144.314 26.1471 144.333 25.4191V18.8391H148.365V27.5471V33.5391H145.117L145.089 28.9471H144.585C144.305 30.1044 143.95 31.0564 143.521 31.8031C143.11 32.5311 142.578 33.0724 141.925 33.4271C141.29 33.7631 140.525 33.9311 139.629 33.9311ZM157.411 33.9311C156.179 33.9311 155.096 33.6137 154.163 32.9791C153.248 32.3444 152.539 31.4484 152.035 30.2911C151.531 29.1337 151.279 27.7617 151.279 26.1751C151.279 24.6817 151.503 23.3564 151.951 22.1991C152.399 21.0417 153.062 20.1364 153.939 19.4831C154.816 18.8297 155.908 18.5031 157.215 18.5031C158.167 18.5031 158.97 18.6804 159.623 19.0351C160.276 19.3897 160.808 19.9124 161.219 20.6031C161.648 21.2751 161.984 22.0871 162.227 23.0391H162.871C162.74 22.4417 162.619 21.8631 162.507 21.3031C162.414 20.7244 162.339 20.1737 162.283 19.6511C162.227 19.1284 162.199 18.6711 162.199 18.2791V13.5191H166.231V26.3151V33.5391H162.871V29.2831H162.311C162.106 30.3284 161.788 31.1964 161.359 31.8871C160.93 32.5777 160.379 33.0911 159.707 33.4271C159.054 33.7631 158.288 33.9311 157.411 33.9311ZM158.755 30.6271C159.371 30.6271 159.894 30.4964 160.323 30.2351C160.752 29.9737 161.107 29.6377 161.387 29.2271C161.667 28.7977 161.872 28.3404 162.003 27.8551C162.134 27.3511 162.199 26.8844 162.199 26.4551V25.9231C162.199 25.5684 162.143 25.2044 162.031 24.8311C161.938 24.4391 161.798 24.0564 161.611 23.6831C161.424 23.3097 161.191 22.9831 160.911 22.7031C160.631 22.4044 160.304 22.1711 159.931 22.0031C159.558 21.8351 159.147 21.7511 158.699 21.7511C158.027 21.7511 157.458 21.9377 156.991 22.3111C156.524 22.6844 156.16 23.2071 155.899 23.8791C155.638 24.5324 155.507 25.2977 155.507 26.1751C155.507 27.0711 155.638 27.8551 155.899 28.5271C156.179 29.1991 156.562 29.7217 157.047 30.0951C157.532 30.4497 158.102 30.6271 158.755 30.6271Z" fill="white"/>
<path d="M171.346 33.9031C170.468 33.9031 169.806 33.7164 169.358 33.3431C168.928 32.9697 168.714 32.3911 168.714 31.6071C168.714 30.8044 168.928 30.2164 169.358 29.8431C169.806 29.4697 170.468 29.2831 171.346 29.2831C172.242 29.2831 172.904 29.4697 173.334 29.8431C173.782 30.2164 174.006 30.8044 174.006 31.6071C174.006 33.1377 173.119 33.9031 171.346 33.9031Z" fill="#189292"/>
</svg>
