<svg width="30" height="30" viewBox="0 0 30 30" fill="none" xmlns="http://www.w3.org/2000/svg">
<g clip-path="url(#clip0_284_501)">
<path fill-rule="evenodd" clip-rule="evenodd" d="M14.6473 1.01559C14.6941 0.858451 14.8389 0.75 15.0032 0.75C15.1675 0.75 15.3123 0.858451 15.3591 1.01559C15.3591 1.01559 16.0104 3.19881 16.7085 5.54047C17.8209 9.27116 20.7392 12.1895 24.4699 13.3019C26.8115 13.9999 28.9947 14.6513 28.9947 14.6513C29.1519 14.698 29.2603 14.8428 29.2603 15.0071C29.2603 15.1714 29.1519 15.3162 28.9947 15.363C28.9947 15.363 26.8115 16.0143 24.4699 16.7124C20.7392 17.8248 17.8209 20.7431 16.7085 24.4738C16.0104 26.8154 15.3591 28.9986 15.3591 28.9986C15.3123 29.1558 15.1675 29.2642 15.0032 29.2642C14.8389 29.2642 14.6941 29.1558 14.6473 28.9986C14.6473 28.9986 13.996 26.8154 13.2979 24.4738C12.1856 20.7431 9.26724 17.8248 5.53655 16.7124C3.1949 16.0143 1.01169 15.363 1.01169 15.363C0.854535 15.3162 0.746094 15.1714 0.746094 15.0071C0.746094 14.8428 0.854535 14.698 1.01169 14.6513C1.01169 14.6513 3.1949 13.9999 5.53655 13.3019C9.26724 12.1895 12.1856 9.27116 13.2979 5.54047C13.996 3.19881 14.6473 1.01559 14.6473 1.01559Z" fill="white"/>
</g>
<defs>
<clipPath id="clip0_284_501">
<rect width="30" height="30" fill="white"/>
</clipPath>
</defs>
</svg>
