<svg width="24" height="24" viewBox="0 0 24 24" fill="none" xmlns="http://www.w3.org/2000/svg">
<g clip-path="url(#clip0_284_1368)">
<path d="M5.57366 10.284C8.17729 10.284 10.2879 8.17338 10.2879 5.56975C10.2879 2.96613 8.17729 0.855469 5.57366 0.855469C2.97003 0.855469 0.859375 2.96613 0.859375 5.56975C0.859375 8.17338 2.97003 10.284 5.57366 10.284Z" stroke="white" stroke-linecap="round" stroke-linejoin="round"/>
<path d="M18.433 10.284C21.0367 10.284 23.1473 8.17338 23.1473 5.56975C23.1473 2.96613 21.0367 0.855469 18.433 0.855469C15.8294 0.855469 13.7188 2.96613 13.7188 5.56975C13.7188 8.17338 15.8294 10.284 18.433 10.284Z" stroke="white" stroke-linecap="round" stroke-linejoin="round"/>
<path d="M5.57366 23.1395C8.17729 23.1395 10.2879 21.0289 10.2879 18.4252C10.2879 15.8216 8.17729 13.7109 5.57366 13.7109C2.97003 13.7109 0.859375 15.8216 0.859375 18.4252C0.859375 21.0289 2.97003 23.1395 5.57366 23.1395Z" stroke="white" stroke-linecap="round" stroke-linejoin="round"/>
<path d="M18.433 23.1434C21.0367 23.1434 23.1473 21.0328 23.1473 18.4291C23.1473 15.8255 21.0367 13.7148 18.433 13.7148C15.8294 13.7148 13.7188 15.8255 13.7188 18.4291C13.7188 21.0328 15.8294 23.1434 18.433 23.1434Z" stroke="white" stroke-linecap="round" stroke-linejoin="round"/>
</g>
<defs>
<clipPath id="clip0_284_1368">
<rect width="24" height="24" fill="white"/>
</clipPath>
</defs>
</svg>
