<svg width="30" height="30" viewBox="0 0 30 30" fill="none" xmlns="http://www.w3.org/2000/svg">
<g clip-path="url(#clip0_284_730)">
<path d="M19.4794 1.64833L19.2866 1.60547L1.60798 12.0198C1.45411 12.1009 1.32389 12.2206 1.23001 12.367C1.13613 12.5135 1.08178 12.6818 1.07227 12.8555V27.234C1.07227 27.5182 1.18515 27.7907 1.38608 27.9917C1.58701 28.1926 1.85953 28.3055 2.14369 28.3055H27.858C28.1421 28.3055 28.4147 28.1926 28.6156 27.9917C28.8165 27.7907 28.9294 27.5182 28.9294 27.234V12.234C28.5997 9.72456 27.5218 7.37254 25.8363 5.4844C24.1507 3.59626 21.9356 2.25952 19.4794 1.64833V1.64833Z" stroke="white" stroke-width="1.5" stroke-linecap="round" stroke-linejoin="round"/>
<path d="M1.26562 12.3203H27.8585" stroke="white" stroke-width="1.5" stroke-linecap="round" stroke-linejoin="round"/>
<path d="M1.07227 22.3263L1.24369 22.1763C1.64061 21.7714 2.11395 21.4492 2.63627 21.2285C3.15859 21.0078 3.71952 20.893 4.28655 20.8906C5.42319 20.8906 6.51328 21.3422 7.31701 22.1459C8.12074 22.9496 8.57227 24.0397 8.57227 25.1763C8.56748 26.3111 8.11281 27.3977 7.30798 28.1978L7.13655 28.3906" stroke="white" stroke-width="1.5" stroke-linecap="round" stroke-linejoin="round"/>
<path d="M19.2866 23.034C21.0618 23.034 22.5008 21.595 22.5008 19.8198C22.5008 18.0446 21.0618 16.6055 19.2866 16.6055C17.5114 16.6055 16.0723 18.0446 16.0723 19.8198C16.0723 21.595 17.5114 23.034 19.2866 23.034Z" stroke="white" stroke-width="1.5" stroke-linecap="round" stroke-linejoin="round"/>
</g>
<defs>
<clipPath id="clip0_284_730">
<rect width="30" height="30" fill="white"/>
</clipPath>
</defs>
</svg>
