<svg width="40" height="40" viewBox="0 0 40 40" fill="none" xmlns="http://www.w3.org/2000/svg">
<g clip-path="url(#clip0_284_579)">
<path d="M14.9992 23.5742H2.85631C2.06733 23.5742 1.42773 24.2138 1.42773 25.0028V37.1456C1.42773 37.9346 2.06733 38.5742 2.85631 38.5742H14.9992C15.7881 38.5742 16.4277 37.9346 16.4277 37.1456V25.0028C16.4277 24.2138 15.7881 23.5742 14.9992 23.5742Z" stroke="#189292" stroke-width="1.5" stroke-linecap="round" stroke-linejoin="round"/>
<path d="M37.1417 23.5742H24.9989C24.2099 23.5742 23.5703 24.2138 23.5703 25.0028V37.1456C23.5703 37.9346 24.2099 38.5742 24.9989 38.5742H37.1417C37.9307 38.5742 38.5703 37.9346 38.5703 37.1456V25.0028C38.5703 24.2138 37.9307 23.5742 37.1417 23.5742Z" stroke="#189292" stroke-width="1.5" stroke-linecap="round" stroke-linejoin="round"/>
<path d="M26.0851 1.42969H13.9422C13.1533 1.42969 12.5137 2.06928 12.5137 2.85826V15.0011C12.5137 15.7901 13.1533 16.4297 13.9422 16.4297H26.0851C26.8741 16.4297 27.5137 15.7901 27.5137 15.0011V2.85826C27.5137 2.06928 26.8741 1.42969 26.0851 1.42969Z" stroke="#189292" stroke-width="1.5" stroke-linecap="round" stroke-linejoin="round"/>
</g>
<defs>
<clipPath id="clip0_284_579">
<rect width="40" height="40" fill="white"/>
</clipPath>
</defs>
</svg>
