<svg width="25" height="26" viewBox="0 0 25 26" fill="none" xmlns="http://www.w3.org/2000/svg">
<path d="M19 3.21484H6.00002C5.70031 3.22307 5.40674 3.30172 5.14306 3.44442C4.87938 3.58712 4.65297 3.78987 4.48216 4.03627L1.23216 8.53627C0.990832 8.8773 0.870311 9.28915 0.889721 9.70648C0.909132 10.1238 1.06736 10.5227 1.3393 10.8398L11.0893 22.072C11.2562 22.2871 11.4701 22.4611 11.7146 22.5809C11.9591 22.7006 12.2278 22.7629 12.5 22.7629C12.7723 22.7629 13.0409 22.7006 13.2854 22.5809C13.5299 22.4611 13.7438 22.2871 13.9107 22.072L23.6607 10.8398C23.9327 10.5227 24.0909 10.1238 24.1103 9.70648C24.1297 9.28915 24.0092 8.8773 23.7679 8.53627L20.5179 4.03627C20.3471 3.78987 20.1207 3.58712 19.857 3.44442C19.5933 3.30172 19.2997 3.22307 19 3.21484V3.21484Z" stroke="white" stroke-linecap="round" stroke-linejoin="round"/>
<path d="M11.571 3.19531L7.21387 9.94531L12.4996 22.7132" stroke="white" stroke-linecap="round" stroke-linejoin="round"/>
<path d="M13.4821 3.19531L17.8214 9.94531L12.5 22.7132" stroke="white" stroke-linecap="round" stroke-linejoin="round"/>
<path d="M0.928711 9.94531H24.0716" stroke="white" stroke-linecap="round" stroke-linejoin="round"/>
</svg>
