<svg width="40" height="41" viewBox="0 0 40 41" fill="none" xmlns="http://www.w3.org/2000/svg">
<path d="M25.1716 35.0923C23.8809 36.383 22.3486 37.4068 20.6622 38.1054C18.9759 38.8039 17.1684 39.1634 15.3431 39.1634C11.6566 39.1634 8.12119 37.699 5.51449 35.0923C2.90779 32.4856 1.44336 28.9502 1.44336 25.2637C1.44336 21.5773 2.90779 18.0419 5.51449 15.4352L18.9145 2.03516L25.1716 8.2923L12.8859 20.6066C12.0962 21.5776 11.6946 22.8069 11.7587 24.0568C11.8229 25.3068 12.3483 26.4885 13.2333 27.3735C14.1183 28.2585 15.3 28.7839 16.55 28.848C17.7999 28.9122 19.0292 28.5106 20.0002 27.7209L32.2859 15.4352L38.5716 21.6923L25.1716 35.0923Z" stroke="white" stroke-width="1.5" stroke-linecap="round" stroke-linejoin="round"/>
<path d="M26.2578 21.4922L32.515 27.7493" stroke="white" stroke-width="1.5" stroke-linecap="round" stroke-linejoin="round"/>
<path d="M12.8574 8.09375L19.1146 14.3509" stroke="white" stroke-width="1.5" stroke-linecap="round" stroke-linejoin="round"/>
</svg>
