<svg width="60" height="61" viewBox="0 0 60 61" fill="none" xmlns="http://www.w3.org/2000/svg">
<path d="M13.9283 26.255C20.4374 26.255 25.714 20.9784 25.714 14.4693C25.714 7.96024 20.4374 2.68359 13.9283 2.68359C7.41922 2.68359 2.14258 7.96024 2.14258 14.4693C2.14258 20.9784 7.41922 26.255 13.9283 26.255Z" stroke="#189292" stroke-width="2" stroke-linecap="round" stroke-linejoin="round"/>
<path d="M46.0709 26.255C52.5799 26.255 57.8566 20.9784 57.8566 14.4693C57.8566 7.96024 52.5799 2.68359 46.0709 2.68359C39.5618 2.68359 34.2852 7.96024 34.2852 14.4693C34.2852 20.9784 39.5618 26.255 46.0709 26.255Z" stroke="#189292" stroke-width="2" stroke-linecap="round" stroke-linejoin="round"/>
<path d="M13.9283 58.3996C20.4374 58.3996 25.714 53.1229 25.714 46.6138C25.714 40.1048 20.4374 34.8281 13.9283 34.8281C7.41922 34.8281 2.14258 40.1048 2.14258 46.6138C2.14258 53.1229 7.41922 58.3996 13.9283 58.3996Z" stroke="#189292" stroke-width="2" stroke-linecap="round" stroke-linejoin="round"/>
<path d="M46.0709 58.3996C52.5799 58.3996 57.8566 53.1229 57.8566 46.6138C57.8566 40.1048 52.5799 34.8281 46.0709 34.8281C39.5618 34.8281 34.2852 40.1048 34.2852 46.6138C34.2852 53.1229 39.5618 58.3996 46.0709 58.3996Z" stroke="#189292" stroke-width="2" stroke-linecap="round" stroke-linejoin="round"/>
</svg>
