<svg width="40" height="41" viewBox="0 0 40 41" fill="none" xmlns="http://www.w3.org/2000/svg">
<path d="M24.2868 14.8276C25.8648 14.8276 27.144 13.5484 27.144 11.9704C27.144 10.3925 25.8648 9.11328 24.2868 9.11328C22.7089 9.11328 21.4297 10.3925 21.4297 11.9704C21.4297 13.5484 22.7089 14.8276 24.2868 14.8276Z" stroke="white" stroke-width="1.5" stroke-linecap="round" stroke-linejoin="round"/>
<path d="M12.8583 29.111C13.6472 29.111 14.2868 28.4715 14.2868 27.6825C14.2868 26.8935 13.6472 26.2539 12.8583 26.2539C12.0693 26.2539 11.4297 26.8935 11.4297 27.6825C11.4297 28.4715 12.0693 29.111 12.8583 29.111Z" stroke="white" stroke-width="1.5" stroke-linecap="round" stroke-linejoin="round"/>
<path d="M12.8571 19.1127C14.4351 19.1127 15.7143 17.8335 15.7143 16.2556C15.7143 14.6776 14.4351 13.3984 12.8571 13.3984C11.2792 13.3984 10 14.6776 10 16.2556C10 17.8335 11.2792 19.1127 12.8571 19.1127Z" stroke="white" stroke-width="1.5" stroke-linecap="round" stroke-linejoin="round"/>
<path d="M27.2003 35.6259C27.1684 35.0717 26.9758 34.5388 26.646 34.0923C26.3162 33.6458 25.8635 33.305 25.3431 33.1116C24.0508 32.6869 22.9525 31.8151 22.2455 30.653C21.5385 29.4908 21.2692 28.1146 21.4862 26.7718C21.7031 25.4289 22.392 24.2074 23.4289 23.327C24.4658 22.4466 25.7828 21.965 27.1431 21.9688H32.486C33.4023 21.9713 34.3059 21.7534 35.1204 21.3335C35.9349 20.9136 36.6365 20.3039 37.1659 19.556C37.6953 18.808 38.0371 17.9437 38.1625 17.036C38.2878 16.1282 38.193 15.2036 37.886 14.3402C36.7496 11.1315 34.7532 8.29691 32.1149 6.14603C29.4766 3.99515 26.2979 2.61076 22.926 2.14411C19.5542 1.67745 16.119 2.14648 12.9957 3.49995C9.87239 4.85343 7.18116 7.03927 5.21601 9.81869C3.25087 12.5981 2.08742 15.8641 1.85278 19.26C1.61813 22.6559 2.32132 26.0509 3.88551 29.0742C5.44971 32.0975 7.81473 34.6327 10.7222 36.4029C13.6297 38.173 16.9677 39.1101 20.3717 39.1116C22.0527 39.1163 23.7261 38.8855 25.3431 38.4259C25.937 38.2595 26.4513 37.8852 26.7922 37.3712C27.1331 36.8572 27.278 36.2378 27.2003 35.6259V35.6259Z" stroke="white" stroke-width="1.5" stroke-linecap="round" stroke-linejoin="round"/>
</svg>
