<svg width="20" height="21" viewBox="0 0 20 21" fill="none" xmlns="http://www.w3.org/2000/svg">
<g clip-path="url(#clip0_284_1855)">
<path d="M15.8074 13.3184C15.3979 12.892 14.9041 12.6641 14.3806 12.6641C13.8614 12.6641 13.3633 12.8878 12.937 13.3142L11.6031 14.6438C11.4934 14.5847 11.3836 14.5298 11.2781 14.475C11.1261 14.399 10.9826 14.3272 10.8602 14.2513C9.61075 13.4577 8.47527 12.4235 7.38621 11.0854C6.85857 10.4185 6.504 9.85705 6.24651 9.2872C6.59264 8.97061 6.91345 8.64136 7.22581 8.32478C7.344 8.20659 7.4622 8.08417 7.58039 7.96598C8.46683 7.07954 8.46683 5.93139 7.58039 5.04495L6.42802 3.89258C6.29716 3.76173 6.16209 3.62665 6.03545 3.49158C5.78218 3.22987 5.51625 2.95971 5.24188 2.70644C4.83243 2.30122 4.34277 2.08594 3.8278 2.08594C3.31282 2.08594 2.81472 2.30122 2.39261 2.70644C2.38839 2.71067 2.38839 2.71067 2.38417 2.71489L0.948981 4.16274C0.408675 4.70304 0.100533 5.36154 0.0329944 6.12557C-0.0683129 7.35814 0.294705 8.50629 0.5733 9.25765C1.25712 11.1023 2.27864 12.8118 3.80247 14.6438C5.65133 16.8515 7.87587 18.5948 10.417 19.8232C11.3879 20.2833 12.6837 20.8278 14.1316 20.9206C14.2202 20.9249 14.3131 20.9291 14.3975 20.9291C15.3726 20.9291 16.1915 20.5787 16.8331 19.8823C16.8373 19.8738 16.8458 19.8696 16.85 19.8611C17.0695 19.5952 17.3228 19.3546 17.5887 19.0971C17.7702 18.9241 17.9559 18.7425 18.1375 18.5526C18.5553 18.1178 18.7748 17.6113 18.7748 17.0921C18.7748 16.5687 18.5511 16.0663 18.1248 15.6442L15.8074 13.3184ZM17.3186 17.7632C17.3143 17.7632 17.3143 17.7675 17.3186 17.7632C17.1539 17.9405 16.9851 18.1009 16.8036 18.2782C16.5292 18.5399 16.2506 18.8143 15.9889 19.1224C15.5626 19.5783 15.0602 19.7936 14.4017 19.7936C14.3384 19.7936 14.2709 19.7936 14.2076 19.7894C12.9539 19.7092 11.7889 19.2195 10.9151 18.8016C8.52592 17.645 6.42802 16.003 4.68469 13.922C3.24528 12.1871 2.28286 10.5831 1.64547 8.86086C1.2529 7.8098 1.10938 6.9909 1.1727 6.21843C1.21491 5.72456 1.40486 5.31511 1.75522 4.96475L3.19463 3.52535C3.40146 3.33117 3.62096 3.22564 3.83624 3.22564C4.10217 3.22564 4.31745 3.38605 4.45252 3.52112C4.45675 3.52535 4.46097 3.52957 4.46519 3.53379C4.72268 3.77439 4.9675 4.02344 5.22499 4.28937C5.35585 4.42445 5.49092 4.55952 5.626 4.69882L6.77837 5.85119C7.22581 6.29863 7.22581 6.7123 6.77837 7.15974C6.65596 7.28216 6.53777 7.40457 6.41535 7.52276C6.06078 7.88578 5.72309 8.22347 5.35585 8.55272C5.34741 8.56116 5.33896 8.56538 5.33474 8.57382C4.97172 8.93684 5.03926 9.29142 5.11524 9.53202C5.11946 9.54469 5.12369 9.55735 5.12791 9.57001C5.42761 10.296 5.84972 10.9799 6.49133 11.7946L6.49555 11.7988C7.66059 13.234 8.88894 14.3526 10.2439 15.2095C10.417 15.3192 10.5943 15.4078 10.7631 15.4923C10.9151 15.5682 11.0586 15.64 11.181 15.716C11.1979 15.7244 11.2148 15.7371 11.2317 15.7455C11.3752 15.8173 11.5103 15.8511 11.6496 15.8511C11.9999 15.8511 12.2194 15.6316 12.2912 15.5598L13.7348 14.1162C13.8783 13.9727 14.1063 13.7996 14.3722 13.7996C14.6339 13.7996 14.8492 13.9642 14.98 14.1077C14.9843 14.112 14.9843 14.112 14.9885 14.1162L17.3143 16.442C17.7491 16.8726 17.7491 17.3158 17.3186 17.7632Z" fill="white"/>
<path d="M10.8089 5.68514C11.9148 5.87087 12.9195 6.39429 13.7215 7.19631C14.5235 7.99832 15.0427 9.00295 15.2327 10.1089C15.2791 10.3875 15.5197 10.5817 15.7941 10.5817C15.8278 10.5817 15.8574 10.5774 15.8912 10.5732C16.2035 10.5226 16.4104 10.2271 16.3597 9.91472C16.1318 8.57662 15.4986 7.35671 14.5319 6.39007C13.5653 5.42343 12.3454 4.79026 11.0073 4.56232C10.6949 4.51166 10.4037 4.7185 10.3488 5.02664C10.2939 5.33478 10.4965 5.63449 10.8089 5.68514Z" fill="white"/>
<path d="M19.9756 9.75211C19.6 7.54868 18.5616 5.54364 16.966 3.94805C15.3704 2.35246 13.3653 1.31406 11.1619 0.938375C10.8538 0.8835 10.5625 1.09456 10.5076 1.4027C10.457 1.71506 10.6638 2.00632 10.9762 2.0612C12.9432 2.39467 14.7372 3.32754 16.1639 4.75006C17.5907 6.17681 18.5193 7.97079 18.8528 9.93784C18.8992 10.2164 19.1398 10.4106 19.4142 10.4106C19.448 10.4106 19.4775 10.4064 19.5113 10.4022C19.8195 10.3557 20.0305 10.0603 19.9756 9.75211Z" fill="white"/>
</g>
<defs>
<clipPath id="clip0_284_1855">
<rect width="20" height="20" fill="white" transform="translate(0 0.929688)"/>
</clipPath>
</defs>
</svg>
