<svg width="24" height="24" viewBox="0 0 24 24" fill="none" xmlns="http://www.w3.org/2000/svg">
<g clip-path="url(#clip0_284_3322)">
<path d="M8.9993 14.1406H1.71359C1.2402 14.1406 0.856445 14.5244 0.856445 14.9978V22.2835C0.856445 22.7569 1.2402 23.1406 1.71359 23.1406H8.9993C9.47269 23.1406 9.85645 22.7569 9.85645 22.2835V14.9978C9.85645 14.5244 9.47269 14.1406 8.9993 14.1406Z" stroke="#189292" stroke-width="1.5" stroke-linecap="round" stroke-linejoin="round"/>
<path d="M22.2845 14.1406H14.9987C14.5254 14.1406 14.1416 14.5244 14.1416 14.9978V22.2835C14.1416 22.7569 14.5254 23.1406 14.9987 23.1406H22.2845C22.7578 23.1406 23.1416 22.7569 23.1416 22.2835V14.9978C23.1416 14.5244 22.7578 14.1406 22.2845 14.1406Z" stroke="#189292" stroke-width="1.5" stroke-linecap="round" stroke-linejoin="round"/>
<path d="M15.6507 0.855469H8.36496C7.89157 0.855469 7.50781 1.23922 7.50781 1.71261V8.99833C7.50781 9.47171 7.89157 9.85547 8.36496 9.85547H15.6507C16.1241 9.85547 16.5078 9.47171 16.5078 8.99833V1.71261C16.5078 1.23922 16.1241 0.855469 15.6507 0.855469Z" stroke="#189292" stroke-width="1.5" stroke-linecap="round" stroke-linejoin="round"/>
</g>
<defs>
<clipPath id="clip0_284_3322">
<rect width="24" height="24" fill="white"/>
</clipPath>
</defs>
</svg>
