<svg width="30" height="30" viewBox="0 0 30 30" fill="none" xmlns="http://www.w3.org/2000/svg">
<g clip-path="url(#clip0_284_714)">
<path d="M16.0053 14.7874C15.6875 14.9254 15.3447 14.9966 14.9982 14.9966C14.6517 14.9966 14.3089 14.9254 13.9911 14.7874L1.77678 9.13021C1.57844 9.03018 1.41176 8.87704 1.2953 8.68788C1.17885 8.49871 1.11719 8.28093 1.11719 8.05878C1.11719 7.83664 1.17885 7.61886 1.2953 7.42969C1.41176 7.24053 1.57844 7.0874 1.77678 6.98736L13.9911 1.28736C14.3089 1.14934 14.6517 1.07812 14.9982 1.07812C15.3447 1.07813 15.6875 1.14934 16.0053 1.28736L28.2196 6.9445C28.418 7.04454 28.5847 7.19767 28.7011 7.38684C28.8176 7.57601 28.8792 7.79379 28.8792 8.01593C28.8792 8.23807 28.8176 8.45585 28.7011 8.64502C28.5847 8.83419 28.418 8.98732 28.2196 9.08736L16.0053 14.7874Z" stroke="white" stroke-width="1.5" stroke-linecap="round" stroke-linejoin="round"/>
<path d="M28.9275 15.75L15.856 21.7714C15.5769 21.8988 15.2736 21.9647 14.9667 21.9647C14.6599 21.9647 14.3566 21.8988 14.0775 21.7714L1.07031 15.75" stroke="white" stroke-width="1.5" stroke-linecap="round" stroke-linejoin="round"/>
<path d="M28.9275 22.7148L15.856 28.7363C15.5769 28.8636 15.2736 28.9295 14.9667 28.9295C14.6599 28.9295 14.3566 28.8636 14.0775 28.7363L1.07031 22.7148" stroke="white" stroke-width="1.5" stroke-linecap="round" stroke-linejoin="round"/>
</g>
<defs>
<clipPath id="clip0_284_714">
<rect width="30" height="30" fill="white"/>
</clipPath>
</defs>
</svg>
