<svg width="60" height="60" viewBox="0 0 60 60" fill="none" xmlns="http://www.w3.org/2000/svg">
<path d="M37.7565 51.7302C35.8204 53.6663 33.522 55.2021 30.9924 56.2499C28.4628 57.2976 25.7516 57.8369 23.0136 57.8369C17.484 57.8369 12.1808 55.6403 8.27075 51.7302C4.3607 47.8202 2.16406 42.517 2.16406 36.9874C2.16406 31.4577 4.3607 26.1546 8.27075 22.2445L28.3708 2.14453L37.7565 11.5302L19.3279 30.0017C18.1433 31.4581 17.5409 33.3021 17.6371 35.177C17.7334 37.0519 18.5215 38.8245 19.849 40.152C21.1765 41.4795 22.9491 42.2676 24.824 42.3639C26.6989 42.4601 28.5429 41.8577 29.9993 40.6731L48.4279 22.2445L57.8565 31.6302L37.7565 51.7302Z" stroke="#189292" stroke-width="2" stroke-linecap="round" stroke-linejoin="round"/>
<path d="M39.3848 31.332L48.7705 40.7177" stroke="#189292" stroke-width="2" stroke-linecap="round" stroke-linejoin="round"/>
<path d="M19.2852 11.2305L28.6709 20.6162" stroke="#189292" stroke-width="2" stroke-linecap="round" stroke-linejoin="round"/>
</svg>
