<svg width="40" height="40" viewBox="0 0 40 40" fill="none" xmlns="http://www.w3.org/2000/svg">
<g clip-path="url(#clip0_284_598)">
<path d="M21.3411 19.7126C20.9173 19.8966 20.4603 19.9915 19.9983 19.9915C19.5363 19.9915 19.0792 19.8966 18.6554 19.7126L2.36969 12.1697C2.10524 12.0363 1.883 11.8322 1.72772 11.5799C1.57245 11.3277 1.49023 11.0373 1.49023 10.7411C1.49023 10.445 1.57245 10.1546 1.72772 9.90235C1.883 9.65013 2.10524 9.44595 2.36969 9.31257L18.6554 1.71257C19.0792 1.52855 19.5363 1.43359 19.9983 1.43359C20.4603 1.43359 20.9173 1.52855 21.3411 1.71257L37.6268 9.25543C37.8913 9.38881 38.1135 9.59298 38.2688 9.84521C38.4241 10.0974 38.5063 10.3878 38.5063 10.684C38.5063 10.9802 38.4241 11.2706 38.2688 11.5228C38.1135 11.775 37.8913 11.9792 37.6268 12.1126L21.3411 19.7126Z" stroke="#189292" stroke-width="1.5" stroke-linecap="round" stroke-linejoin="round"/>
<path d="M38.5706 21L21.142 29.0286C20.7698 29.1984 20.3654 29.2862 19.9563 29.2862C19.5472 29.2862 19.1428 29.1984 18.7706 29.0286L1.42773 21" stroke="#189292" stroke-width="1.5" stroke-linecap="round" stroke-linejoin="round"/>
<path d="M38.5706 30.2852L21.142 38.3137C20.7698 38.4835 20.3654 38.5714 19.9563 38.5714C19.5472 38.5714 19.1428 38.4835 18.7706 38.3137L1.42773 30.2852" stroke="#189292" stroke-width="1.5" stroke-linecap="round" stroke-linejoin="round"/>
</g>
<defs>
<clipPath id="clip0_284_598">
<rect width="40" height="40" fill="white"/>
</clipPath>
</defs>
</svg>
