<svg width="60" height="60" viewBox="0 0 60 60" fill="none" xmlns="http://www.w3.org/2000/svg">
<path d="M19.2854 55.7154C28.7532 55.7154 36.4283 48.0403 36.4283 38.5725C36.4283 29.1048 28.7532 21.4297 19.2854 21.4297C9.8177 21.4297 2.14258 29.1048 2.14258 38.5725C2.14258 48.0403 9.8177 55.7154 19.2854 55.7154Z" stroke="#189292" stroke-width="2" stroke-linecap="round" stroke-linejoin="round"/>
<path d="M40.7132 55.7154C50.1809 55.7154 57.856 48.0403 57.856 38.5725C57.856 29.1048 50.1809 21.4297 40.7132 21.4297C31.2454 21.4297 23.5703 29.1048 23.5703 38.5725C23.5703 48.0403 31.2454 55.7154 40.7132 55.7154Z" stroke="#189292" stroke-width="2" stroke-linecap="round" stroke-linejoin="round"/>
<path d="M30.0003 38.5709C39.468 38.5709 47.1431 30.8958 47.1431 21.428C47.1431 11.9603 39.468 4.28516 30.0003 4.28516C20.5325 4.28516 12.8574 11.9603 12.8574 21.428C12.8574 30.8958 20.5325 38.5709 30.0003 38.5709Z" stroke="#189292" stroke-width="2" stroke-linecap="round" stroke-linejoin="round"/>
</svg>
