<svg width="60" height="61" viewBox="0 0 60 61" fill="none" xmlns="http://www.w3.org/2000/svg">
<path d="M32.0146 30.1099C31.3789 30.3859 30.6933 30.5283 30.0003 30.5283C29.3073 30.5283 28.6217 30.3859 27.986 30.1099L3.55747 18.7956C3.16078 18.5955 2.82743 18.2892 2.59452 17.9109C2.3616 17.5326 2.23828 17.097 2.23828 16.6527C2.23828 16.2084 2.3616 15.7729 2.59452 15.3945C2.82743 15.0162 3.16078 14.7099 3.55747 14.5099L27.986 3.10987C28.6217 2.83384 29.3073 2.69141 30.0003 2.69141C30.6933 2.69141 31.3789 2.83384 32.0146 3.10987L56.4432 14.4242C56.8399 14.6242 57.1732 14.9305 57.4061 15.3088C57.639 15.6872 57.7624 16.1227 57.7624 16.567C57.7624 17.0113 57.639 17.4469 57.4061 17.8252C57.1732 18.2035 56.8399 18.5098 56.4432 18.7099L32.0146 30.1099Z" stroke="#189292" stroke-width="2" stroke-linecap="round" stroke-linejoin="round"/>
<path d="M57.8569 32.0391L31.714 44.0819C31.1557 44.3366 30.5491 44.4684 29.9354 44.4684C29.3217 44.4684 28.7152 44.3366 28.1569 44.0819L2.14258 32.0391" stroke="#189292" stroke-width="2" stroke-linecap="round" stroke-linejoin="round"/>
<path d="M57.8569 45.9688L31.714 58.0116C31.1557 58.2663 30.5491 58.3981 29.9354 58.3981C29.3217 58.3981 28.7152 58.2663 28.1569 58.0116L2.14258 45.9688" stroke="#189292" stroke-width="2" stroke-linecap="round" stroke-linejoin="round"/>
</svg>
