<svg width="26" height="26" viewBox="0 0 26 26" fill="none" xmlns="http://www.w3.org/2000/svg">
<g clip-path="url(#clip0_284_3423)">
<path d="M6.30427 11.216C9.01638 11.216 11.215 9.01736 11.215 6.30524C11.215 3.59313 9.01638 1.39453 6.30427 1.39453C3.59216 1.39453 1.39355 3.59313 1.39355 6.30524C1.39355 9.01736 3.59216 11.216 6.30427 11.216Z" stroke="#0a4141" stroke-linecap="round" stroke-linejoin="round"/>
<path d="M19.6978 11.216C22.4099 11.216 24.6085 9.01736 24.6085 6.30524C24.6085 3.59313 22.4099 1.39453 19.6978 1.39453C16.9857 1.39453 14.7871 3.59313 14.7871 6.30524C14.7871 9.01736 16.9857 11.216 19.6978 11.216Z" stroke="#0a4141" stroke-linecap="round" stroke-linejoin="round"/>
<path d="M6.30427 24.6105C9.01638 24.6105 11.215 22.4119 11.215 19.6998C11.215 16.9877 9.01638 14.7891 6.30427 14.7891C3.59216 14.7891 1.39355 16.9877 1.39355 19.6998C1.39355 22.4119 3.59216 24.6105 6.30427 24.6105Z" stroke="#0a4141" stroke-linecap="round" stroke-linejoin="round"/>
<path d="M19.6978 24.6105C22.4099 24.6105 24.6085 22.4119 24.6085 19.6998C24.6085 16.9877 22.4099 14.7891 19.6978 14.7891C16.9857 14.7891 14.7871 16.9877 14.7871 19.6998C14.7871 22.4119 16.9857 24.6105 19.6978 24.6105Z" stroke="#0a4141" stroke-linecap="round" stroke-linejoin="round"/>
</g>
<defs>
<clipPath id="clip0_284_3423">
<rect width="25" height="25" fill="white" transform="translate(0.5 0.5)"/>
</clipPath>
</defs>
</svg>
