<svg width="175" height="50" viewBox="0 0 175 50" fill="none" xmlns="http://www.w3.org/2000/svg">
<circle cx="25" cy="25" r="25" fill="#189292"/>
<path d="M37.6803 30.397C38.6988 28.3095 39.131 26.2374 38.9657 24.2376C38.8004 22.2377 38.0315 20.2537 36.6812 18.3426C35.3244 16.4223 33.3342 14.5112 30.7638 12.6622C29.8792 12.0253 28.2014 11.1287 26.4475 10.5612C24.8945 10.0594 22.7108 9.63754 21.128 10.4813C19.7735 11.2035 19.1073 12.6754 19.1474 14.8551C19.1855 16.9943 20.0659 19.1941 21.835 21.5808C23.3518 23.6265 25.3285 25.5488 27.0728 27.2445C28.7683 28.8924 30.3698 30.4483 31.2108 31.7924C31.2227 31.8117 32.3596 33.7359 31.7071 35.6524C31.262 36.9648 30.0835 37.9942 28.2052 38.718C24.0863 40.0393 19.8509 38.0313 17.0217 36.1133C15.2151 34.8881 13.735 33.5421 12.8062 32.623C14.9937 33.0747 16.6334 32.6786 17.2881 32.4652C17.6586 32.9269 18.0522 33.3692 18.4674 33.7903C19.7887 35.1262 21.2268 36.1086 22.76 36.7204C22.8642 36.762 22.9805 36.76 23.0832 36.7149C23.1859 36.6698 23.2667 36.5853 23.3079 36.4799C23.349 36.3746 23.347 36.2571 23.3024 36.1532C23.2578 36.0493 23.1742 35.9676 23.07 35.926C21.1509 35.1606 19.3821 33.7587 17.8112 31.7599C17.7828 31.7088 17.7437 31.6645 17.6966 31.6303C17.6249 31.5573 16.7235 30.5688 16.4391 26.8087C17.6115 28.6403 19.4421 30.6085 21.6029 32.3254C24.4482 34.5866 27.3676 36.0102 29.4123 36.1337C29.4679 36.1375 29.5237 36.1301 29.5764 36.112C29.6292 36.0938 29.6778 36.0653 29.7196 36.0281C29.7614 35.9909 29.7955 35.9457 29.82 35.8951C29.8444 35.8444 29.8587 35.7894 29.862 35.7332C29.8654 35.677 29.8577 35.6207 29.8394 35.5675C29.8211 35.5143 29.7925 35.4653 29.7554 35.4233C29.7183 35.3813 29.6733 35.3471 29.6231 35.3228C29.5728 35.2984 29.5183 35.2844 29.4627 35.2814C27.5829 35.1679 24.8399 33.8119 22.1248 31.653C19.4001 29.488 17.2313 26.9322 16.3219 24.817C16.2829 24.7265 16.2142 24.6525 16.1274 24.6074C16.0405 24.5624 15.941 24.5492 15.8456 24.57C15.7502 24.5909 15.6649 24.6445 15.6042 24.7217C15.5434 24.799 15.5111 24.8951 15.5125 24.9938C15.5774 29.0468 16.262 30.9185 16.7342 31.7333C15.8535 31.9614 13.9423 32.2494 11.5654 31.3859C11.4775 31.3538 11.3815 31.3522 11.2925 31.3813C11.2035 31.4103 11.1266 31.4684 11.0738 31.5464C11.021 31.6245 10.9953 31.718 11.0007 31.8124C11.0062 31.9068 11.0425 31.9967 11.1039 32.068C11.1371 32.1066 11.454 32.4721 12.0037 33.028C12.9318 33.9663 14.5234 35.4466 16.5338 36.8107C18.4247 38.0946 20.2911 39.004 22.082 39.5127C24.3474 40.1578 26.4968 40.1624 28.4697 39.5266C30.1155 38.9971 31.6564 38.0139 33.0509 36.6039C35.1449 34.494 36.701 32.4046 37.6803 30.397ZM31.9629 31.4006C31.9553 31.3863 31.9484 31.3743 31.9434 31.367C31.9358 31.3531 31.9308 31.3458 31.9308 31.3458C31.0383 29.9153 29.397 28.3199 27.6596 26.6308C24.1042 23.1745 20.0747 19.2582 19.9934 14.8412C19.9598 13.01 20.4744 11.798 21.5235 11.2387C22.7291 10.5956 24.5433 10.8345 26.2658 11.3973C26.4361 11.818 26.8457 13.0505 26.3204 14.1066C25.8932 14.9663 24.925 15.5348 23.4434 15.8031C23.3887 15.8127 23.3363 15.8331 23.2894 15.8632C23.2425 15.8933 23.2019 15.9325 23.17 15.9784C23.1381 16.0244 23.1155 16.0763 23.1034 16.1311C23.0914 16.186 23.0901 16.2426 23.0998 16.298C23.1094 16.3533 23.1297 16.4062 23.1595 16.4536C23.1893 16.501 23.228 16.542 23.2735 16.5742C23.319 16.6065 23.3703 16.6294 23.4246 16.6416C23.4788 16.6538 23.5349 16.6551 23.5896 16.6454C24.9976 16.3925 26.0295 15.8772 26.6689 15.1102C28.1578 16.3624 30.621 18.5881 32.5657 21.1071C33.7454 22.6349 34.5601 24.0515 34.9869 25.318C35.4775 26.7732 35.4542 28.0385 34.9178 29.0788C34.8913 29.1286 34.8748 29.1832 34.8693 29.2395C34.8638 29.2957 34.8694 29.3526 34.8858 29.4066C34.9022 29.4607 34.9291 29.5109 34.9649 29.5544C35.0006 29.5978 35.0446 29.6337 35.0942 29.6599C35.1438 29.686 35.198 29.7019 35.2537 29.7067C35.3095 29.7115 35.3656 29.7051 35.4188 29.6877C35.4721 29.6704 35.5214 29.6426 35.5639 29.6058C35.6064 29.5691 35.6412 29.5242 35.6664 29.4737C36.8434 27.1909 36.0242 24.199 33.2315 20.5818C31.202 17.9531 28.6324 15.6448 27.1232 14.3826C27.5459 13.4447 27.4428 12.4561 27.2691 11.7659C28.4854 12.2562 29.5784 12.861 30.2732 13.3613C35.1717 16.887 37.8124 20.5714 38.122 24.3125C38.4274 28.003 36.5865 31.8151 32.4966 35.9654C32.5012 35.9523 32.5062 35.9395 32.5104 35.9268C33.2342 33.7868 32.1622 31.7491 31.9629 31.3987V31.4006Z" fill="white"/>
<path d="M73.184 33.392C71.9707 33.392 70.8787 33.2707 69.908 33.028C68.956 32.804 68.1347 32.4587 67.444 31.992C66.772 31.5067 66.24 30.9093 65.848 30.2C65.4747 29.472 65.26 28.6413 65.204 27.708L68.732 26.56C68.7693 27.4 68.9747 28.1 69.348 28.66C69.74 29.22 70.2907 29.6307 71 29.892C71.7093 30.1533 72.5027 30.284 73.38 30.284C74.22 30.284 74.9293 30.1813 75.508 29.976C76.0867 29.7707 76.5253 29.5 76.824 29.164C77.1227 28.8093 77.272 28.4267 77.272 28.016C77.272 27.5307 77.0853 27.1387 76.712 26.84C76.3387 26.5413 75.8253 26.2893 75.172 26.084C74.5373 25.8787 73.8093 25.6827 72.988 25.496C72.0733 25.2907 71.168 25.0573 70.272 24.796C69.3947 24.5347 68.592 24.1987 67.864 23.788C67.1547 23.3773 66.5853 22.8453 66.156 22.192C65.7453 21.5387 65.54 20.7173 65.54 19.728C65.54 18.5893 65.82 17.6093 66.38 16.788C66.9587 15.948 67.7987 15.2947 68.9 14.828C70.0013 14.3613 71.3267 14.128 72.876 14.128C74.444 14.128 75.7787 14.3613 76.88 14.828C78 15.276 78.868 15.92 79.484 16.76C80.1 17.5813 80.436 18.5613 80.492 19.7L76.852 20.708C76.852 20.1293 76.7587 19.6253 76.572 19.196C76.3853 18.7667 76.124 18.412 75.788 18.132C75.452 17.8333 75.032 17.6093 74.528 17.46C74.0427 17.3107 73.4827 17.236 72.848 17.236C72.12 17.236 71.4853 17.3293 70.944 17.516C70.4213 17.7027 70.02 17.9547 69.74 18.272C69.4787 18.5893 69.348 18.9627 69.348 19.392C69.348 19.896 69.5533 20.316 69.964 20.652C70.3933 20.9693 70.9533 21.2307 71.644 21.436C72.3533 21.6413 73.128 21.8373 73.968 22.024C74.7707 22.192 75.5827 22.4067 76.404 22.668C77.244 22.9107 78.0187 23.2373 78.728 23.648C79.456 24.04 80.0347 24.5813 80.464 25.272C80.912 25.944 81.136 26.7933 81.136 27.82C81.136 28.94 80.8373 29.92 80.24 30.76C79.6427 31.6 78.7467 32.2533 77.552 32.72C76.376 33.168 74.92 33.392 73.184 33.392ZM90.9456 33.392C89.7323 33.392 88.6496 33.224 87.6976 32.888C86.7643 32.552 85.971 32.0667 85.3176 31.432C84.6643 30.7973 84.1603 30.0133 83.8056 29.08C83.4696 28.1467 83.3016 27.092 83.3016 25.916C83.3016 24.7587 83.4603 23.6947 83.7776 22.724C84.1136 21.7347 84.599 20.8853 85.2336 20.176C85.8683 19.448 86.643 18.888 87.5576 18.496C88.4723 18.104 89.5083 17.908 90.6656 17.908C91.7856 17.908 92.7843 18.0947 93.6616 18.468C94.539 18.8227 95.267 19.364 95.8456 20.092C96.443 20.82 96.8723 21.716 97.1336 22.78C97.4136 23.8253 97.5163 25.0293 97.4416 26.392L85.9056 26.504V24.292L95.1176 24.208L93.6896 25.328C93.8203 24.3387 93.755 23.5267 93.4936 22.892C93.2323 22.2573 92.8496 21.7907 92.3456 21.492C91.8603 21.1933 91.319 21.044 90.7216 21.044C90.0123 21.044 89.387 21.2307 88.8456 21.604C88.3043 21.9773 87.8843 22.528 87.5856 23.256C87.287 23.9653 87.1376 24.824 87.1376 25.832C87.1376 27.4187 87.483 28.5853 88.1736 29.332C88.883 30.0787 89.807 30.452 90.9456 30.452C91.4683 30.452 91.907 30.3867 92.2616 30.256C92.635 30.1067 92.9336 29.92 93.1576 29.696C93.4003 29.472 93.587 29.22 93.7176 28.94C93.867 28.66 93.9883 28.38 94.0816 28.1L97.5816 28.856C97.4136 29.5467 97.1616 30.172 96.8256 30.732C96.5083 31.2733 96.079 31.7493 95.5376 32.16C94.9963 32.552 94.343 32.8507 93.5776 33.056C92.831 33.28 91.9536 33.392 90.9456 33.392ZM103.855 33.392C103.033 33.392 102.305 33.2333 101.671 32.916C101.036 32.58 100.541 32.104 100.187 31.488C99.8318 30.872 99.6545 30.1067 99.6545 29.192C99.6545 28.3893 99.8038 27.7173 100.103 27.176C100.42 26.6347 100.877 26.196 101.475 25.86C102.072 25.524 102.809 25.244 103.687 25.02C104.564 24.796 105.563 24.6 106.683 24.432C107.28 24.3387 107.765 24.2547 108.139 24.18C108.531 24.0867 108.82 23.9467 109.007 23.76C109.193 23.5547 109.287 23.2653 109.287 22.892C109.287 22.3693 109.1 21.9213 108.727 21.548C108.353 21.1747 107.765 20.988 106.963 20.988C106.421 20.988 105.917 21.0813 105.451 21.268C105.003 21.4547 104.611 21.7347 104.275 22.108C103.957 22.4813 103.724 22.9573 103.575 23.536L100.019 22.444C100.243 21.6787 100.56 21.016 100.971 20.456C101.4 19.896 101.913 19.4293 102.511 19.056C103.108 18.664 103.789 18.3747 104.555 18.188C105.32 18.0013 106.151 17.908 107.047 17.908C108.484 17.908 109.651 18.1413 110.547 18.608C111.461 19.056 112.143 19.7653 112.591 20.736C113.039 21.688 113.263 22.92 113.263 24.432V26.952C113.263 27.6053 113.272 28.268 113.291 28.94C113.328 29.612 113.365 30.2933 113.403 30.984C113.459 31.656 113.515 32.328 113.571 33H110.015C109.94 32.5333 109.865 32.0013 109.791 31.404C109.735 30.788 109.688 30.172 109.651 29.556H109.147C108.885 30.2653 108.512 30.9093 108.027 31.488C107.541 32.0667 106.944 32.5333 106.235 32.888C105.544 33.224 104.751 33.392 103.855 33.392ZM105.562 30.48C105.917 30.48 106.272 30.4147 106.627 30.284C107 30.1533 107.355 29.976 107.691 29.752C108.045 29.5093 108.363 29.2107 108.643 28.856C108.941 28.5013 109.184 28.1 109.371 27.652L109.315 25.3L109.959 25.44C109.623 25.6827 109.231 25.8787 108.783 26.028C108.335 26.1587 107.868 26.2613 107.383 26.336C106.916 26.4107 106.449 26.4947 105.983 26.588C105.516 26.6813 105.096 26.8027 104.723 26.952C104.368 27.1013 104.079 27.3067 103.855 27.568C103.649 27.8107 103.547 28.156 103.547 28.604C103.547 29.1827 103.733 29.64 104.107 29.976C104.48 30.312 104.965 30.48 105.562 30.48ZM125.693 33.392C124.76 33.392 123.948 33.2147 123.257 32.86C122.567 32.4867 122.007 31.9547 121.577 31.264C121.148 30.5733 120.849 29.7333 120.681 28.744H120.149L120.121 33H116.789V25.776V12.98H120.821V17.796C120.821 18.244 120.793 18.7293 120.737 19.252C120.681 19.756 120.597 20.2787 120.485 20.82C120.392 21.3613 120.289 21.9213 120.177 22.5H120.793C121.036 21.5667 121.363 20.764 121.773 20.092C122.203 19.4013 122.744 18.8787 123.397 18.524C124.051 18.1507 124.825 17.964 125.721 17.964C126.953 17.964 128.017 18.2813 128.913 18.916C129.809 19.5507 130.5 20.4467 130.985 21.604C131.489 22.7613 131.741 24.1333 131.741 25.72C131.741 27.2693 131.499 28.6227 131.013 29.78C130.528 30.9187 129.828 31.8053 128.913 32.44C128.017 33.0747 126.944 33.392 125.693 33.392ZM124.265 30.088C124.937 30.088 125.516 29.9107 126.001 29.556C126.487 29.1827 126.86 28.66 127.121 27.988C127.383 27.316 127.513 26.532 127.513 25.636C127.513 24.74 127.383 23.9653 127.121 23.312C126.879 22.6587 126.524 22.1453 126.057 21.772C125.591 21.3987 125.021 21.212 124.349 21.212C123.901 21.212 123.491 21.296 123.117 21.464C122.744 21.632 122.417 21.8653 122.137 22.164C121.857 22.444 121.615 22.7707 121.409 23.144C121.204 23.4987 121.055 23.872 120.961 24.264C120.868 24.656 120.821 25.0293 120.821 25.384V25.916C120.821 26.3453 120.887 26.812 121.017 27.316C121.148 27.8013 121.353 28.2587 121.633 28.688C121.932 29.0987 122.296 29.4347 122.725 29.696C123.155 29.9573 123.668 30.088 124.265 30.088ZM139.629 33.392C137.912 33.392 136.614 32.8133 135.737 31.656C134.878 30.48 134.449 28.6973 134.449 26.308V18.3H138.481V25.804C138.481 27.2413 138.696 28.3147 139.125 29.024C139.554 29.7147 140.208 30.06 141.085 30.06C141.608 30.06 142.065 29.9293 142.457 29.668C142.849 29.4067 143.185 29.0427 143.465 28.576C143.745 28.1093 143.95 27.5587 144.081 26.924C144.23 26.2893 144.314 25.608 144.333 24.88V18.3H148.365V27.008V33H145.117L145.089 28.408H144.585C144.305 29.5653 143.95 30.5173 143.521 31.264C143.11 31.992 142.578 32.5333 141.925 32.888C141.29 33.224 140.525 33.392 139.629 33.392ZM157.411 33.392C156.179 33.392 155.096 33.0747 154.163 32.44C153.248 31.8053 152.539 30.9093 152.035 29.752C151.531 28.5947 151.279 27.2227 151.279 25.636C151.279 24.1427 151.503 22.8173 151.951 21.66C152.399 20.5027 153.062 19.5973 153.939 18.944C154.816 18.2907 155.908 17.964 157.215 17.964C158.167 17.964 158.97 18.1413 159.623 18.496C160.276 18.8507 160.808 19.3733 161.219 20.064C161.648 20.736 161.984 21.548 162.227 22.5H162.871C162.74 21.9027 162.619 21.324 162.507 20.764C162.414 20.1853 162.339 19.6347 162.283 19.112C162.227 18.5893 162.199 18.132 162.199 17.74V12.98H166.231V25.776V33H162.871V28.744H162.311C162.106 29.7893 161.788 30.6573 161.359 31.348C160.93 32.0387 160.379 32.552 159.707 32.888C159.054 33.224 158.288 33.392 157.411 33.392ZM158.755 30.088C159.371 30.088 159.894 29.9573 160.323 29.696C160.752 29.4347 161.107 29.0987 161.387 28.688C161.667 28.2587 161.872 27.8013 162.003 27.316C162.134 26.812 162.199 26.3453 162.199 25.916V25.384C162.199 25.0293 162.143 24.6653 162.031 24.292C161.938 23.9 161.798 23.5173 161.611 23.144C161.424 22.7707 161.191 22.444 160.911 22.164C160.631 21.8653 160.304 21.632 159.931 21.464C159.558 21.296 159.147 21.212 158.699 21.212C158.027 21.212 157.458 21.3987 156.991 21.772C156.524 22.1453 156.16 22.668 155.899 23.34C155.638 23.9933 155.507 24.7587 155.507 25.636C155.507 26.532 155.638 27.316 155.899 27.988C156.179 28.66 156.562 29.1827 157.047 29.556C157.532 29.9107 158.102 30.088 158.755 30.088Z" fill="white"/>
<path d="M171.346 33.364C170.468 33.364 169.806 33.1773 169.358 32.804C168.928 32.4307 168.714 31.852 168.714 31.068C168.714 30.2653 168.928 29.6773 169.358 29.304C169.806 28.9307 170.468 28.744 171.346 28.744C172.242 28.744 172.904 28.9307 173.334 29.304C173.782 29.6773 174.006 30.2653 174.006 31.068C174.006 32.5987 173.119 33.364 171.346 33.364Z" fill="#189292"/>
</svg>
