<svg width="142" height="142" viewBox="0 0 142 142" fill="none" xmlns="http://www.w3.org/2000/svg">
<circle opacity="0.2" cx="71" cy="71" r="70" stroke="white" stroke-dasharray="5 5"/>
<path d="M72.8977 20.7559L72.4531 12L74.6072 12.2658L74.6861 18.2464L74.7101 19.2026L74.8252 19.2168L75.0993 18.2974L76.703 12.7219L79.2974 13.0421L79.4617 18.8358L79.4925 19.7928L79.6144 19.8078L79.8817 18.8876L81.4557 13.111L83.5828 13.3735L80.9994 21.7557L77.985 21.3837L77.881 16.1489L77.8339 14.6112L77.7255 14.5978L77.2984 16.077L75.9122 21.1279L72.8977 20.7559Z" fill="white"/>
<path d="M87.8959 23.8122L88.5041 22.2619L88.4925 22.1507L89.1791 20.1911L89.2557 19.9313C89.378 19.5824 89.365 19.2895 89.2167 19.0527C89.0685 18.8159 88.7514 18.6141 88.2656 18.4474C87.8399 18.3013 87.4171 18.2158 86.9971 18.1908C86.5772 18.1659 86.1735 18.1632 85.7861 18.1828L86.4838 16.7276C86.7187 16.7033 86.975 16.6936 87.2528 16.6983C87.5363 16.7002 87.8396 16.7281 88.1628 16.7818C88.486 16.8355 88.8217 16.9221 89.17 17.0416C89.7246 17.232 90.1666 17.4552 90.496 17.7112C90.8253 17.9673 91.0608 18.2507 91.2024 18.5615C91.344 18.8722 91.4068 19.2084 91.3909 19.57C91.3765 19.9274 91.3007 20.3018 91.1635 20.6933L89.8372 24.4785L87.8959 23.8122ZM85.8257 23.2662C85.1936 23.0493 84.7694 22.7273 84.5529 22.3003C84.3365 21.8732 84.3304 21.3682 84.5347 20.7852L84.5951 20.6129C84.8113 19.9958 85.1621 19.6062 85.6477 19.4439C86.139 19.2788 86.8226 19.287 87.6983 19.4683L89.4793 19.8293L89.1839 21.0436L87.5986 20.7427C87.2799 20.6762 87.0403 20.6726 86.8798 20.732C86.7194 20.7913 86.6041 20.921 86.534 21.121L86.5184 21.1657C86.4513 21.3572 86.4599 21.5318 86.5444 21.6894C86.6303 21.8429 86.8108 21.9668 87.086 22.0612C87.3268 22.1439 87.5459 22.1785 87.7432 22.1652C87.9449 22.1534 88.1217 22.1092 88.2738 22.0327C88.4273 21.9519 88.5574 21.8487 88.664 21.7232L88.664 22.6099L88.3415 22.4993C88.1773 22.748 87.9833 22.9579 87.7596 23.129C87.5401 23.3016 87.2726 23.4052 86.957 23.4399C86.6414 23.4746 86.2643 23.4167 85.8257 23.2662Z" fill="white"/>
<path d="M94.6324 26.9173C94.1059 26.6404 93.7276 26.342 93.4975 26.022C93.2735 25.7001 93.1775 25.3462 93.2096 24.9601C93.2417 24.574 93.3817 24.1503 93.6295 23.689L95.3884 20.4138L97.2209 21.3778L95.6189 24.3606C95.4651 24.6469 95.4162 24.8916 95.4722 25.0944C95.5343 25.2954 95.7442 25.49 96.1019 25.6781C96.2988 25.7817 96.5054 25.8624 96.7218 25.9201C96.9382 25.9778 97.1429 26.0141 97.336 26.0289L96.3686 27.4558C96.1167 27.4354 95.8422 27.3803 95.5452 27.2904C95.2501 27.2066 94.9458 27.0822 94.6324 26.9173ZM94.141 20.8365L94.9099 19.4047L99.5212 21.8304L98.5895 23.1765L94.141 20.8365ZM95.6592 19.9672L96.4669 18.4487L98.3863 19.2365L97.4133 20.8899L95.6592 19.9672Z" fill="white"/>
<path d="M100.809 30.7876C99.9514 30.1628 99.4815 29.4765 99.3992 28.7287C99.3168 27.9808 99.5765 27.2024 100.178 26.3936L100.591 25.8386C101.182 25.0442 101.85 24.5748 102.596 24.4304C103.342 24.2859 104.142 24.5248 104.996 25.1469C105.216 25.3071 105.409 25.4729 105.575 25.6444C105.744 25.8123 105.889 25.9822 106.01 26.1541C106.131 26.3259 106.229 26.4868 106.304 26.6366L105.417 28.1132C105.313 27.8808 105.178 27.6532 105.01 27.4304C104.845 27.2039 104.627 26.9919 104.356 26.7943C103.93 26.4846 103.547 26.3619 103.205 26.4262C102.864 26.4905 102.55 26.7149 102.264 27.0993L101.92 27.5618C101.629 27.9536 101.505 28.328 101.551 28.6853C101.596 29.0425 101.833 29.3773 102.261 29.6897C102.529 29.8846 102.792 30.0287 103.05 30.1219C103.315 30.2141 103.582 30.2802 103.852 30.3202L102.692 31.606C102.426 31.5687 102.128 31.4831 101.799 31.3491C101.469 31.2151 101.139 31.0279 100.809 30.7876Z" fill="white"/>
<path d="M107.894 36.734L110.727 34.0165C110.904 33.8473 111.033 33.6789 111.117 33.5114C111.203 33.3407 111.228 33.1691 111.192 32.9965C111.16 32.8272 111.051 32.6488 110.868 32.4612C110.719 32.3091 110.56 32.2016 110.39 32.1384C110.224 32.0721 110.055 32.0456 109.884 32.0589C109.72 32.0722 109.559 32.1143 109.4 32.1851L109.806 31.212L110.143 31.5565C110.41 31.395 110.687 31.2894 110.974 31.2397C111.261 31.19 111.555 31.2185 111.856 31.3251C112.163 31.4318 112.469 31.6404 112.773 31.9509C113.121 32.3067 113.336 32.6652 113.417 33.0263C113.502 33.3844 113.459 33.7484 113.289 34.1185C113.122 34.4917 112.833 34.8758 112.421 35.2707L109.347 38.2186L107.894 36.734ZM104.891 33.6678L111.367 27.457L112.811 28.9319L111.37 30.3142L109.758 31.8132L109.674 31.96L106.345 35.1524L104.891 33.6678Z" fill="white"/>
<path d="M114.579 45.3597L121.07 39.125L122.137 41.0427L116.713 45.9324L116.789 46.0685L123.868 44.1559L124.931 46.0677L116.139 48.1652L114.579 45.3597Z" fill="white"/>
<path d="M118.068 52.2426L124.346 49.897L125.084 51.8311L118.806 54.1767L118.068 52.2426ZM125.309 50.6422C125.17 50.2798 125.153 49.9854 125.256 49.759C125.364 49.5311 125.56 49.3638 125.846 49.2572L125.89 49.2405C126.176 49.1339 126.433 49.1318 126.661 49.2341C126.89 49.3364 127.074 49.5687 127.212 49.9311C127.347 50.2851 127.363 50.5752 127.259 50.8016C127.158 51.0322 126.964 51.2008 126.679 51.3073L126.634 51.324C126.345 51.4322 126.085 51.433 125.854 51.3265C125.626 51.2242 125.444 50.9961 125.309 50.6422Z" fill="white"/>
<path d="M120.135 58.8614C119.963 58.1058 120.083 57.4763 120.495 56.9731C120.908 56.4742 121.61 56.114 122.599 55.8925L123.405 55.7121C124.413 55.4866 125.219 55.5117 125.823 55.7874C126.427 56.0631 126.82 56.5964 127 57.3871C127.089 57.7737 127.098 58.111 127.029 58.399C126.959 58.687 126.824 58.9342 126.624 59.1406C126.425 59.3514 126.173 59.5233 125.867 59.6564L125.992 60.2033L124.565 60.024C124.834 59.9546 125.051 59.8507 125.215 59.7123C125.379 59.5739 125.49 59.4059 125.548 59.2084C125.611 59.0142 125.614 58.7941 125.558 58.5481C125.474 58.1791 125.301 57.9223 125.039 57.7777C124.777 57.633 124.429 57.6094 123.994 57.7068L123.055 57.9169C122.625 58.0133 122.32 58.183 122.143 58.426C121.97 58.6723 121.928 58.9866 122.015 59.3688C122.061 59.5709 122.14 59.7425 122.252 59.8838C122.364 60.0295 122.5 60.1423 122.658 60.2223C122.817 60.3067 122.987 60.3564 123.168 60.3714L122.296 61.0862L122.166 60.5195C121.858 60.5191 121.567 60.4689 121.292 60.3688C121.017 60.2687 120.78 60.0979 120.58 59.8563C120.38 59.6148 120.232 59.2831 120.135 58.8614ZM120.751 60.8501L122.422 60.5383L122.761 60.4278L125.411 59.8347L125.697 59.7706L127.589 59.3195L129.546 58.8813L130.004 60.8845L121.209 62.8533L120.751 60.8501Z" fill="white"/>
<path d="M121.659 69.0689C121.603 67.8631 121.832 66.9599 122.346 66.3594C122.865 65.7587 123.645 65.4347 124.686 65.3874L125.382 65.3557C126.409 65.309 127.208 65.5432 127.779 66.0583C128.354 66.5732 128.666 67.3458 128.713 68.3761C128.746 69.069 128.652 69.6504 128.432 70.1203C128.217 70.5945 127.895 70.9563 127.464 71.2058C127.034 71.4598 126.51 71.6009 125.892 71.629L125.667 71.6392C125.494 71.6471 125.316 71.6461 125.134 71.6364C124.956 71.631 124.789 71.6183 124.633 71.5983L124.546 69.7356C124.811 69.7416 125.059 69.7416 125.291 69.7356C125.528 69.7293 125.742 69.7219 125.933 69.7132C126.21 69.7006 126.44 69.6473 126.622 69.5533C126.809 69.4592 126.949 69.3198 127.04 69.1353C127.132 68.9553 127.171 68.7258 127.159 68.4468C127.139 68.0329 127.012 67.7344 126.775 67.5512C126.544 67.3724 126.221 67.2924 125.807 67.3112L125.194 67.3391L124.969 67.3628L124.492 67.3845C124.319 67.3924 124.157 67.4268 124.005 67.4879C123.853 67.5534 123.721 67.6586 123.609 67.8034C123.502 67.9525 123.421 68.1524 123.364 68.403C123.312 68.6578 123.295 68.9787 123.313 69.3656C123.332 69.7751 123.389 70.167 123.484 70.5414C123.583 70.9156 123.709 71.2729 123.861 71.6131L122.285 71.5157C122.112 71.217 121.97 70.8605 121.86 70.4462C121.749 70.0319 121.682 69.5728 121.659 69.0689ZM124.396 66.4962L125.685 66.4376L125.902 71.1213L124.613 71.1799L124.396 66.4962Z" fill="white"/>
<path d="M121.351 77.5185C121.49 76.4554 121.861 75.6853 122.465 75.2084C123.072 74.7366 123.861 74.5626 124.832 74.6866L125.705 74.7982C126.689 74.924 127.416 75.2939 127.887 75.9081C128.362 76.5228 128.53 77.3595 128.392 78.4182C128.254 79.4768 127.877 80.2415 127.26 80.7122C126.647 81.188 125.849 81.363 124.865 81.2373L123.992 81.1257C123.021 81.0017 122.303 80.6351 121.836 80.026C121.374 79.4174 121.212 78.5816 121.351 77.5185ZM122.983 77.727C122.933 78.1067 123.011 78.4095 123.215 78.6354C123.424 78.8664 123.742 79.0093 124.171 79.0641L125.22 79.1982C125.672 79.2559 126.028 79.1992 126.289 79.0282C126.549 78.8616 126.704 78.5885 126.754 78.2088C126.803 77.8291 126.724 77.5238 126.515 77.2928C126.306 77.0663 125.976 76.9242 125.525 76.8665L124.475 76.7324C124.046 76.6776 123.702 76.7335 123.442 76.9C123.185 77.0716 123.032 77.3473 122.983 77.727Z" fill="white"/>
<path d="M122.778 89.902L124.089 89.0203L124.706 90.4009L124.749 90.403L125.454 89.1806L126.755 90.0843L125.691 91.1765L125.706 91.2115L127.143 91.5441L126.525 93.1256L125.238 92.4086L125.203 92.4241L125.245 93.9467L123.668 93.7487L123.98 92.3688L123.945 92.3479L122.55 92.9583L122.177 91.4394L123.695 91.1513L123.71 91.1135L122.778 89.902Z" fill="white"/>
<path d="M114.175 98.6384L122.07 102.613L120.766 104.33L115.484 101.422L114.634 100.967L114.565 101.059L115.234 101.752L119.323 105.903L117.751 107.97L112.592 105.229L111.738 104.779L111.664 104.876L112.337 105.564L116.617 109.789L115.329 111.484L109.267 105.096L111.093 102.693L115.733 105.209L117.104 105.933L117.17 105.847L116.086 104.744L112.349 101.041L114.175 98.6384Z" fill="white"/>
<path d="M104.037 110.004L105.096 111.295L105.199 111.34L106.578 112.902L106.768 113.097C107.014 113.375 107.277 113.509 107.559 113.499C107.84 113.489 108.174 113.316 108.561 112.981C108.901 112.688 109.185 112.367 109.415 112.018C109.645 111.67 109.848 111.324 110.023 110.981L110.954 112.302C110.859 112.516 110.74 112.741 110.598 112.978C110.456 113.22 110.281 113.467 110.074 113.719C109.867 113.97 109.624 114.215 109.347 114.455C108.905 114.838 108.49 115.107 108.102 115.263C107.714 115.419 107.348 115.481 107.005 115.449C106.663 115.417 106.336 115.304 106.027 115.111C105.721 114.921 105.43 114.671 105.154 114.359L102.49 111.342L104.037 110.004ZM105.542 108.495C106.046 108.06 106.539 107.855 107.021 107.88C107.503 107.906 107.949 108.151 108.359 108.616L108.481 108.753C108.915 109.245 109.083 109.739 108.985 110.237C108.886 110.741 108.54 111.325 107.947 111.988L106.747 113.339L105.828 112.483L106.878 111.27C107.094 111.029 107.216 110.825 107.244 110.658C107.271 110.49 107.214 110.327 107.074 110.168L107.042 110.132C106.907 109.979 106.75 109.9 106.57 109.895C106.392 109.892 106.194 109.986 105.975 110.176C105.783 110.342 105.644 110.513 105.558 110.689C105.468 110.868 105.419 111.042 105.411 111.211C105.406 111.383 105.432 111.546 105.489 111.7L104.711 111.26L104.968 111.038C104.831 110.773 104.743 110.503 104.704 110.225C104.661 109.951 104.703 109.67 104.829 109.382C104.955 109.093 105.193 108.798 105.542 108.495Z" fill="white"/>
<path d="M97.9728 114.263C98.4764 113.947 98.9256 113.769 99.3204 113.73C99.7139 113.696 100.072 113.789 100.395 114.007C100.718 114.226 101.021 114.556 101.304 114.997L103.31 118.13L101.557 119.229L99.7301 116.376C99.5547 116.102 99.3641 115.939 99.1583 115.887C98.951 115.841 98.6763 115.925 98.3342 116.14C98.1459 116.258 97.9728 116.396 97.8151 116.554C97.6574 116.711 97.5243 116.869 97.4158 117.028L96.6412 115.49C96.7836 115.284 96.9678 115.075 97.1937 114.864C97.4133 114.651 97.673 114.451 97.9728 114.263ZM103.556 116.848L104.433 118.218L100.022 120.984L99.3006 119.517L103.556 116.848ZM103.568 118.584L104.502 120.03L102.861 121.291L101.89 119.636L103.568 118.584Z" fill="white"/>
<path d="M91.5046 117.667C92.4778 117.239 93.313 117.175 94.0102 117.474C94.7075 117.774 95.2622 118.382 95.6743 119.3L95.9571 119.93C96.3618 120.831 96.4428 121.638 96.2002 122.351C95.9576 123.064 95.3517 123.634 94.3827 124.06C94.1332 124.17 93.892 124.254 93.6591 124.312C93.4281 124.374 93.2072 124.414 92.9965 124.433C92.7858 124.452 92.5961 124.456 92.4274 124.447L91.5701 122.953C91.8257 122.979 92.0927 122.975 92.3714 122.941C92.6519 122.911 92.946 122.829 93.2537 122.694C93.7362 122.481 94.0338 122.212 94.1465 121.887C94.2593 121.561 94.2177 121.18 94.0218 120.744L93.7862 120.219C93.5866 119.775 93.3188 119.483 92.9829 119.345C92.647 119.207 92.2357 119.245 91.7492 119.459C91.4456 119.593 91.1889 119.747 90.9791 119.923C90.767 120.105 90.5766 120.303 90.4079 120.515L89.8535 118.881C90.018 118.67 90.2408 118.457 90.5217 118.239C90.8027 118.022 91.1303 117.831 91.5046 117.667Z" fill="white"/>
<path d="M82.7864 120.802L83.7614 124.586C83.8222 124.821 83.9053 125.016 84.0109 125.171C84.1176 125.33 84.2556 125.437 84.4247 125.492C84.5894 125.548 84.7997 125.544 85.0555 125.479C85.2627 125.427 85.4362 125.344 85.5758 125.229C85.7166 125.119 85.8236 124.988 85.8968 124.835C85.9667 124.687 86.0101 124.527 86.027 124.355L86.6783 125.188L86.2086 125.307C86.2178 125.616 86.1729 125.906 86.0737 126.177C85.9746 126.449 85.8035 126.687 85.5606 126.893C85.3143 127.103 84.9795 127.262 84.5562 127.369C84.0711 127.492 83.6501 127.498 83.293 127.388C82.9371 127.283 82.6391 127.065 82.3991 126.735C82.1547 126.407 81.9617 125.967 81.82 125.417L80.7623 121.313L82.7864 120.802ZM86.9669 119.747L89.1953 128.395L87.1844 128.902L86.6885 126.977L86.175 124.848L86.0882 124.703L84.9428 120.258L86.9669 119.747Z" fill="white"/>
<path d="M71.8432 122.247L74.0781 130.922L71.8667 130.883L70.2794 123.794L70.1224 123.792L68.2766 130.821L66.072 130.782L68.6079 122.191L71.8432 122.247Z" fill="white"/>
<path d="M64.0595 121.822L62.9997 128.38L60.9371 128.053L61.9968 121.496L64.0595 121.822ZM61.8681 128.837C62.2546 128.898 62.5214 129.029 62.6687 129.231C62.8152 129.436 62.8644 129.688 62.8162 129.986L62.8087 130.033C62.7605 130.331 62.6348 130.553 62.4315 130.698C62.2282 130.844 61.9333 130.886 61.5469 130.825C61.1694 130.765 60.907 130.635 60.7598 130.434C60.6081 130.232 60.5563 129.982 60.6044 129.684L60.612 129.637C60.6609 129.335 60.7892 129.111 60.997 128.966C61.2003 128.82 61.4906 128.777 61.8681 128.837Z" fill="white"/>
<path d="M57.2367 120.315C57.9853 120.541 58.478 120.957 58.7149 121.561C58.9475 122.163 58.9154 122.945 58.6187 123.905L58.3771 124.687C58.075 125.665 57.6531 126.345 57.1114 126.727C56.5697 127.11 55.9072 127.182 55.1238 126.945C54.7408 126.829 54.4403 126.67 54.2221 126.467C54.0039 126.265 53.8539 126.026 53.7721 125.752C53.686 125.476 53.6604 125.174 53.6953 124.845L53.1534 124.682L54.0187 123.545C53.9462 123.81 53.9299 124.048 53.9698 124.257C54.0096 124.467 54.102 124.646 54.2468 124.793C54.3859 124.944 54.5773 125.056 54.821 125.13C55.1866 125.24 55.4977 125.219 55.7544 125.066C56.0111 124.913 56.2047 124.625 56.3351 124.203L56.6166 123.292C56.7457 122.874 56.7477 122.529 56.6228 122.256C56.4921 121.985 56.2375 121.793 55.8589 121.678C55.6587 121.618 55.469 121.6 55.2897 121.626C55.106 121.651 54.9398 121.711 54.7911 121.807C54.638 121.902 54.5101 122.024 54.4073 122.171L54.2131 121.067L54.7745 121.237C54.9277 120.973 55.1163 120.747 55.3405 120.561C55.5647 120.374 55.8323 120.255 56.1434 120.203C56.4545 120.151 56.8189 120.188 57.2367 120.315ZM55.1867 119.857L54.6309 121.448L54.5597 121.794L53.7652 124.365L53.6794 124.643L53.1365 126.492L52.5496 128.391L50.5651 127.791L53.2022 119.256L55.1867 119.857Z" fill="white"/>
<path d="M47.5114 116.553C48.5962 117.105 49.2739 117.751 49.5444 118.491C49.8129 119.235 49.7089 120.066 49.2326 120.983L48.9143 121.596C48.4441 122.502 47.8414 123.071 47.106 123.305C46.3686 123.542 45.5364 123.425 44.6095 122.954C43.9862 122.637 43.5232 122.267 43.2206 121.845C42.9118 121.425 42.7551 120.968 42.7505 120.474C42.7418 119.978 42.8789 119.458 43.1618 118.913L43.2648 118.715C43.3439 118.563 43.4331 118.411 43.5325 118.259C43.6258 118.109 43.7199 117.972 43.8149 117.848L45.4907 118.7C45.3538 118.924 45.2303 119.138 45.1202 119.34C45.008 119.546 44.9082 119.733 44.8208 119.902C44.6939 120.146 44.6263 120.37 44.6179 120.573C44.6074 120.78 44.6602 120.969 44.7764 121.14C44.8885 121.308 45.07 121.456 45.321 121.584C45.6933 121.773 46.0186 121.812 46.2966 121.7C46.5686 121.591 46.7992 121.353 46.9885 120.989L47.2693 120.448L47.3602 120.244L47.5786 119.823C47.6576 119.671 47.7082 119.514 47.7304 119.353C47.7485 119.19 47.7219 119.025 47.6505 118.857C47.573 118.691 47.4385 118.521 47.2471 118.348C47.0495 118.177 46.7767 118.002 46.4286 117.825C46.0603 117.638 45.6884 117.492 45.313 117.387C44.9356 117.286 44.5598 117.217 44.1858 117.178L45.0552 115.873C45.4033 115.873 45.7863 115.929 46.2044 116.04C46.6224 116.151 47.0581 116.322 47.5114 116.553ZM48.405 120.183L47.8152 121.318L43.6016 119.175L44.1914 118.039L48.405 120.183Z" fill="white"/>
<path d="M40.3327 112.126C41.1954 112.774 41.6856 113.476 41.8033 114.231C41.9145 114.988 41.6744 115.752 41.0829 116.523L40.5505 117.217C39.9507 117.999 39.2646 118.44 38.4922 118.538C37.717 118.64 36.8999 118.368 36.0407 117.723C35.1815 117.078 34.6991 116.373 34.5933 115.61C34.4812 114.847 34.725 114.074 35.3248 113.292L35.8572 112.598C36.4487 111.827 37.1275 111.392 37.8935 111.295C38.6568 111.201 39.4699 111.478 40.3327 112.126ZM39.3381 113.423C39.0299 113.192 38.726 113.107 38.4261 113.171C38.1199 113.235 37.8362 113.437 37.5748 113.778L36.9351 114.612C36.66 114.971 36.5325 115.305 36.5525 115.614C36.569 115.92 36.7313 116.189 37.0394 116.421C37.3475 116.652 37.6547 116.736 37.9609 116.672C38.2635 116.605 38.5523 116.392 38.8275 116.033L39.4671 115.199C39.7285 114.858 39.851 114.535 39.8345 114.228C39.8117 113.923 39.6462 113.654 39.3381 113.423Z" fill="white"/>
<path d="M28.7661 107.195L28.8904 108.759L27.3731 108.605L27.3499 108.641L28.0736 109.852L26.6358 110.523L26.2043 109.067L26.1659 109.063L25.1622 110.133L24.0805 108.818L25.347 108.068L25.351 108.03L23.994 107.311L24.9491 106.054L26.0053 107.006L26.0414 106.986L26.1969 105.484L27.7146 105.917L27.2153 107.364L27.2411 107.396L28.7661 107.195Z" fill="white"/>
<path d="M25.3453 95.466L17.9453 100.285L17.0845 98.3129L22.253 95.213L23.0735 94.7077L23.0275 94.6023L22.0879 94.8347L16.419 96.2939L15.3823 93.9185L20.3447 90.8405L21.1625 90.329L21.1137 90.2174L20.1768 90.456L14.3479 92.0425L13.4979 90.0951L22.1078 88.0483L23.3124 90.8082L18.8062 93.5514L17.4909 94.3712L17.5342 94.4704L19.039 94.0848L24.1407 92.7061L25.3453 95.466Z" fill="white"/>
<path d="M20.4014 81.099L18.7426 81.3652L18.6515 81.4314L16.5965 81.8379L16.3314 81.9041C15.9655 81.9765 15.7169 82.1359 15.5856 82.3824C15.4544 82.6288 15.4392 83.0016 15.54 83.5006C15.6283 83.9379 15.7679 84.342 15.9589 84.713C16.1499 85.084 16.352 85.4299 16.5652 85.7505L14.944 85.8921C14.8039 85.7039 14.6656 85.4902 14.529 85.2508C14.3871 85.0079 14.2578 84.7349 14.1409 84.4319C14.024 84.1289 13.9294 83.7986 13.8572 83.4408C13.7421 82.8711 13.7127 82.3808 13.769 81.9701C13.8253 81.5594 13.9529 81.2149 14.152 80.9367C14.351 80.6585 14.6121 80.4346 14.9352 80.265C15.2539 80.0963 15.6185 79.9714 16.0291 79.8902L19.9986 79.1049L20.4014 81.099ZM20.9741 83.1422C21.1052 83.7914 21.0396 84.3165 20.7771 84.7175C20.5147 85.1185 20.0778 85.3795 19.4664 85.5004L19.2857 85.5362C18.6386 85.6642 18.1214 85.5621 17.7341 85.2299C17.3414 84.8942 17.0023 84.3068 16.7168 83.4676L16.1293 81.765L17.3369 81.4021L17.8776 82.9073C17.9811 83.2129 18.0993 83.4192 18.2323 83.5261C18.3652 83.633 18.5366 83.6657 18.7463 83.6242L18.7932 83.6149C18.994 83.5752 19.1417 83.4794 19.2364 83.3275C19.3265 83.1764 19.3431 82.9596 19.286 82.6769C19.236 82.4296 19.1553 82.2251 19.0437 82.0634C18.9313 81.8974 18.8032 81.7688 18.6595 81.6778C18.5114 81.5877 18.3557 81.529 18.1923 81.5016L18.9649 81.0525L19.0318 81.3837C19.3316 81.3979 19.6128 81.4571 19.8752 81.5614C20.1367 81.6612 20.3625 81.837 20.5525 82.0888C20.7426 82.3406 20.8831 82.6917 20.9741 83.1422Z" fill="white"/>
<path d="M19.6946 73.8008C19.7209 74.3902 19.6532 74.8643 19.4916 75.223C19.3252 75.5774 19.0658 75.839 18.7134 76.0077C18.3611 76.1763 17.9212 76.2722 17.3938 76.2952L13.6498 76.4588L13.5582 74.407L16.9681 74.258C17.2955 74.2437 17.5332 74.1612 17.6814 74.0105C17.8248 73.8554 17.8876 73.5777 17.8697 73.1772C17.8599 72.9567 17.8251 72.7396 17.7655 72.5258C17.7058 72.312 17.6334 72.119 17.5483 71.9469L19.2816 72.047C19.3918 72.2721 19.4832 72.5341 19.5558 72.833C19.6327 73.1272 19.679 73.4498 19.6946 73.8008ZM14.6511 77.3077L13.0143 77.3793L12.784 72.216L14.4289 72.3267L14.6511 77.3077ZM13.1234 76.4548L11.3915 76.5372L11.1025 74.5008L13.0358 74.4907L13.1234 76.4548Z" fill="white"/>
<path d="M19.9252 66.4797C19.8169 67.5282 19.4582 68.2774 18.849 68.7273C18.2398 69.1773 17.4304 69.3512 16.4208 69.249L15.7281 69.1789C14.7366 69.0786 13.9886 68.7471 13.4841 68.1844C12.9795 67.6218 12.7812 66.8185 12.889 65.7745C12.9168 65.5056 12.9631 65.2568 13.0279 65.0279C13.0882 64.7986 13.1625 64.5888 13.2508 64.3985C13.3391 64.2082 13.4293 64.0431 13.5216 63.903L15.257 63.9088C15.1076 64.1156 14.9785 64.347 14.8697 64.6031C14.7563 64.8587 14.6825 65.1523 14.6483 65.4839C14.5946 66.0037 14.6825 66.3929 14.9119 66.6515C15.1414 66.9102 15.4961 67.0638 15.976 67.1123L16.5532 67.1707C17.0422 67.2202 17.4307 67.135 17.7187 66.9152C18.0067 66.6953 18.1779 66.3233 18.232 65.799C18.2658 65.4719 18.2576 65.1746 18.2075 64.9069C18.1534 64.6343 18.0751 64.3728 17.9729 64.1225L19.6812 64.4584C19.7839 64.7042 19.8606 65.0017 19.9115 65.351C19.9623 65.7002 19.9669 66.0764 19.9252 66.4797Z" fill="white"/>
<path d="M21.5052 57.4337L17.7021 56.3935C17.4652 56.3287 17.2527 56.3033 17.0647 56.3173C16.8723 56.3301 16.71 56.3955 16.5779 56.5136C16.4469 56.6273 16.3463 56.8101 16.276 57.0618C16.2191 57.2659 16.206 57.4562 16.237 57.6329C16.2635 57.8084 16.3258 57.9656 16.4239 58.1046C16.5189 58.2381 16.6374 58.3546 16.7796 58.4542L15.7259 58.6006L15.855 58.1383C15.5793 57.9928 15.3471 57.8101 15.1582 57.5902C14.9694 57.3703 14.8451 57.1051 14.7855 56.7944C14.7227 56.4781 14.7495 56.1116 14.8659 55.6949C14.9993 55.2173 15.2027 54.8524 15.4762 54.6001C15.7452 54.3466 16.084 54.1986 16.4925 54.1562C16.9022 54.1093 17.3834 54.1615 17.9361 54.3127L22.0616 55.441L21.5052 57.4337ZM20.356 61.5492L11.6641 59.1719L12.2169 57.1923L14.1513 57.7214L16.2741 58.337L16.4447 58.3346L20.9124 59.5565L20.356 61.5492Z" fill="white"/>
<path d="M25.6486 47.3623L16.9336 44.9648L18.0678 43.0856L25.0707 45.2501L25.1512 45.1167L19.9091 40.0348L21.0397 38.1614L27.3079 44.6131L25.6486 47.3623Z" fill="white"/>
<path d="M29.8826 40.912L24.6626 36.7388L25.9752 35.1306L31.1953 39.3038L29.8826 40.912ZM24.825 35.5399C24.5791 35.8412 24.3313 36.005 24.0817 36.0313C23.8286 36.0547 23.5834 35.9716 23.3462 35.782L23.3091 35.7523C23.0719 35.5627 22.94 35.3443 22.9135 35.0973C22.8869 34.8503 22.9966 34.5761 23.2426 34.2748C23.4828 33.9805 23.7277 33.8202 23.9773 33.794C24.2297 33.7642 24.4746 33.8441 24.7118 34.0337L24.7489 34.0635C24.9897 34.2559 25.1219 34.4774 25.1456 34.7279C25.1721 34.9749 25.0653 35.2456 24.825 35.5399Z" fill="white"/>
<path d="M34.5921 35.8065C34.022 36.3373 33.4132 36.5547 32.7658 36.4586C32.1218 36.3595 31.452 35.9442 30.7567 35.2126L30.1907 34.6172C29.4828 33.8726 29.0955 33.1726 29.0288 32.5174C28.9621 31.8622 29.2271 31.2569 29.8237 30.7014C30.1154 30.4298 30.4043 30.2505 30.6903 30.1636C30.9763 30.0766 31.2599 30.0661 31.5412 30.1319C31.8258 30.1947 32.1035 30.3226 32.3745 30.5156L32.7872 30.1313L33.3553 31.4389C33.1585 31.245 32.9581 31.1131 32.7542 31.0432C32.5503 30.9733 32.3478 30.964 32.1466 31.0153C31.9456 31.0602 31.7523 31.1691 31.5666 31.3419C31.2882 31.6011 31.1525 31.879 31.1594 32.1755C31.1664 32.4721 31.3226 32.7811 31.6282 33.1026L32.2878 33.7964C32.5902 34.1146 32.8924 34.2878 33.1941 34.3161C33.4961 34.3379 33.7912 34.2146 34.0796 33.9461C34.2321 33.8042 34.3415 33.6498 34.4078 33.4829C34.4775 33.3129 34.5069 33.1402 34.4962 32.9646C34.4889 32.7859 34.4458 32.6158 34.3671 32.4541L35.4323 32.8352L35.0047 33.2333C35.1608 33.4961 35.265 33.7701 35.3174 34.0552C35.3698 34.3404 35.3415 34.6295 35.2327 34.9225C35.1238 35.2155 34.9103 35.5102 34.5921 35.8065ZM36.0109 34.2721L34.891 33.0052L34.6229 32.7725L32.7613 30.814L32.5601 30.6024L31.2072 29.2185L29.832 27.7718L31.3435 26.3646L37.5224 32.8648L36.0109 34.2721Z" fill="white"/>
<path d="M42.7173 29.309C41.6961 29.969 40.7936 30.2322 40.0098 30.0987C39.2234 29.9614 38.5453 29.461 37.9755 28.5975L37.5947 28.0205C37.0323 27.1682 36.8305 26.3681 36.9891 25.62C37.1452 24.8682 37.6596 24.2103 38.5321 23.6463C39.1189 23.2671 39.6726 23.0518 40.1931 23.0004C40.715 22.9428 41.1938 23.0341 41.6295 23.2743C42.069 23.5121 42.458 23.8873 42.7964 24.4002L42.9196 24.5869C43.0142 24.7302 43.1036 24.8822 43.1879 25.0429C43.2735 25.1973 43.3472 25.346 43.4089 25.489L41.8315 26.5086C41.7024 26.28 41.5763 26.0684 41.4532 25.8736C41.3276 25.675 41.2125 25.4966 41.108 25.3382C40.9562 25.1082 40.7931 24.9392 40.6187 24.8314C40.4418 24.7198 40.2497 24.6718 40.0426 24.6873C39.8392 24.7004 39.6194 24.7833 39.3832 24.936C39.0326 25.1626 38.8377 25.4231 38.7982 25.7176C38.7601 26.0058 38.8543 26.3215 39.0808 26.6646L39.4167 27.1737L39.5513 27.353L39.8126 27.7489C39.9072 27.8922 40.0196 28.0132 40.15 28.1119C40.2841 28.2081 40.4426 28.267 40.6254 28.2887C40.8095 28.3042 41.0251 28.2725 41.272 28.1936C41.5202 28.1085 41.8081 27.96 42.1358 27.7482C42.4826 27.5241 42.7948 27.2765 43.0726 27.0056C43.3478 26.7308 43.5949 26.4421 43.8136 26.1393L44.5292 27.5326C44.3572 27.8321 44.1189 28.1341 43.8143 28.4385C43.5097 28.743 43.1441 29.0331 42.7173 29.309ZM39.088 28.2818L38.3825 27.2127L42.3491 24.649L43.0546 25.7181L39.088 28.2818Z" fill="white"/>
<path d="M50.1736 25.3199C49.1773 25.7406 48.3185 25.8144 47.5971 25.5412C46.878 25.2621 46.3265 24.6773 45.9425 23.7866L45.5969 22.985C45.2075 22.0819 45.161 21.274 45.4574 20.5612C45.7519 19.8443 46.3952 19.2764 47.3873 18.8575C48.3793 18.4385 49.2366 18.3727 49.9592 18.6601C50.6842 18.9416 51.2414 19.5338 51.6308 20.4369L51.9764 21.2385C52.3604 22.1292 52.4054 22.9279 52.1115 23.6348C51.8158 24.3375 51.1698 24.8992 50.1736 25.3199ZM49.5279 23.8224C49.8837 23.6721 50.1081 23.4525 50.2012 23.1634C50.2967 22.8685 50.2596 22.5242 50.0899 22.1307L49.6746 21.1675C49.496 20.7532 49.2661 20.4782 48.9849 20.3423C48.7078 20.2047 48.3914 20.211 48.0356 20.3612C47.6798 20.5115 47.4542 20.7341 47.3587 21.029C47.2674 21.3222 47.311 21.676 47.4896 22.0902L47.9049 23.0534C48.0746 23.4469 48.298 23.7125 48.575 23.8502C48.8545 23.9819 49.1721 23.9726 49.5279 23.8224Z" fill="white"/>
<path d="M60.2338 17.8284L58.8014 17.1569L59.6915 15.9309L59.6714 15.8931L58.2494 15.9114L58.3773 14.3435L59.8678 14.6975L59.8903 14.6664L59.4521 13.2724L61.143 12.9983L61.1703 14.4589L61.2016 14.4812L62.5068 13.6741L63.1335 15.1197L61.7732 15.5524L61.7731 15.5935L63.0118 16.4744L61.8775 17.5619L60.8572 16.4129L60.8168 16.4194L60.2338 17.8284Z" fill="white"/>
<circle cx="71" cy="71" r="30" fill="white"/>
<g clip-path="url(#clip0_284_1315)">
<path d="M68.401 63.3528C66.9585 62.5254 65.7891 63.2032 65.7891 64.8656V77.1332C65.7891 78.7973 66.9585 79.4743 68.401 78.6476L79.1236 72.4983C80.5666 71.6706 80.5666 70.3295 79.1236 69.502L68.401 63.3528Z" fill="#189292"/>
</g>
<defs>
<clipPath id="clip0_284_1315">
<rect width="16" height="16" fill="white" transform="translate(65 63)"/>
</clipPath>
</defs>
</svg>
