<svg width="24" height="24" viewBox="0 0 24 24" fill="none" xmlns="http://www.w3.org/2000/svg">
<g clip-path="url(#clip0_284_3333)">
<path d="M14.5713 16.2846C15.0259 16.2846 15.462 16.104 15.7835 15.7825C16.105 15.461 16.2856 15.025 16.2856 14.5703" stroke="#189292" stroke-width="1.5" stroke-linecap="round" stroke-linejoin="round"/>
<path d="M7.71484 16.2852H10.2863" stroke="#189292" stroke-width="1.5" stroke-linecap="round" stroke-linejoin="round"/>
<path d="M16.2861 7.71094V10.2824" stroke="#189292" stroke-width="1.5" stroke-linecap="round" stroke-linejoin="round"/>
<path d="M9.42913 7.71094C8.97447 7.71094 8.53844 7.89155 8.21695 8.21304C7.89546 8.53453 7.71484 8.97057 7.71484 9.42522" stroke="#189292" stroke-width="1.5" stroke-linecap="round" stroke-linejoin="round"/>
<path d="M0.857422 2.56975C0.857422 2.1151 1.03803 1.67906 1.35952 1.35757C1.68102 1.03608 2.11705 0.855469 2.57171 0.855469H14.5717C15.0264 0.855469 15.4624 1.03608 15.7839 1.35757C16.1054 1.67906 16.286 2.1151 16.286 2.56975V7.71261H21.4289C21.8835 7.71261 22.3195 7.89322 22.641 8.21471C22.9625 8.53621 23.1431 8.97224 23.1431 9.4269V21.4269C23.1431 21.8816 22.9625 22.3176 22.641 22.6391C22.3195 22.9606 21.8835 23.1412 21.4289 23.1412H9.42885C8.97419 23.1412 8.53816 22.9606 8.21667 22.6391C7.89518 22.3176 7.71456 21.8816 7.71456 21.4269V16.284H2.57171C2.11705 16.284 1.68102 16.1034 1.35952 15.7819C1.03803 15.4604 0.857422 15.0244 0.857422 14.5698V2.56975Z" stroke="#189292" stroke-width="1.5" stroke-linecap="round" stroke-linejoin="round"/>
<path d="M13.7148 7.71094H16.2863" stroke="#189292" stroke-width="1.5" stroke-linecap="round" stroke-linejoin="round"/>
<path d="M7.71484 13.7109V16.2824" stroke="#189292" stroke-width="1.5" stroke-linecap="round" stroke-linejoin="round"/>
</g>
<defs>
<clipPath id="clip0_284_3333">
<rect width="24" height="24" fill="white"/>
</clipPath>
</defs>
</svg>
