<svg width="40" height="41" viewBox="0 0 40 41" fill="none" xmlns="http://www.w3.org/2000/svg">
<path d="M14.9433 7.03516L16.1719 3.86373C16.3791 3.32677 16.7436 2.8649 17.2178 2.53862C17.6919 2.21234 18.2535 2.03686 18.829 2.03516H21.1719C21.7474 2.03686 22.3091 2.21234 22.7832 2.53862C23.2573 2.8649 23.6218 3.32677 23.829 3.86373L25.0576 7.03516L29.229 9.43516L32.6005 8.92087C33.1618 8.84467 33.7332 8.93708 34.2419 9.18637C34.7507 9.43565 35.1738 9.83054 35.4576 10.3209L36.6005 12.3209C36.8933 12.819 37.0282 13.3942 36.9874 13.9706C36.9466 14.547 36.732 15.0975 36.3719 15.5494L34.2862 18.2066V23.0066L36.429 25.6637C36.7892 26.1156 37.0038 26.6661 37.0446 27.2425C37.0854 27.8189 36.9505 28.3942 36.6576 28.8923L35.5148 30.8923C35.231 31.3826 34.8078 31.7775 34.2991 32.0268C33.7904 32.2761 33.219 32.3685 32.6576 32.2923L29.2862 31.778L25.1148 34.178L23.8862 37.3494C23.679 37.8864 23.3145 38.3483 22.8403 38.6746C22.3662 39.0008 21.8046 39.1763 21.229 39.178H18.829C18.2535 39.1763 17.6919 39.0008 17.2178 38.6746C16.7436 38.3483 16.3791 37.8864 16.1719 37.3494L14.9433 34.178L10.7719 31.778L7.40047 32.2923C6.83909 32.3685 6.26773 32.2761 5.75899 32.0268C5.25025 31.7775 4.82711 31.3826 4.54333 30.8923L3.40047 28.8923C3.10762 28.3942 2.97269 27.8189 3.0135 27.2425C3.0543 26.6661 3.26893 26.1156 3.62904 25.6637L5.71475 23.0066V18.2066L3.5719 15.5494C3.21178 15.0975 2.99716 14.547 2.95635 13.9706C2.91555 13.3942 3.05047 12.819 3.34333 12.3209L4.48618 10.3209C4.76996 9.83054 5.19311 9.43565 5.70185 9.18637C6.21058 8.93708 6.78195 8.84467 7.34333 8.92087L10.7148 9.43516L14.9433 7.03516ZM14.2862 20.6066C14.2862 21.7368 14.6213 22.8416 15.2492 23.7813C15.8771 24.721 16.7696 25.4534 17.8137 25.8859C18.8579 26.3184 20.0068 26.4316 21.1153 26.2111C22.2237 25.9906 23.2419 25.4464 24.0411 24.6472C24.8402 23.848 25.3845 22.8298 25.605 21.7214C25.8254 20.6129 25.7123 19.464 25.2798 18.4198C24.8473 17.3757 24.1149 16.4832 23.1752 15.8553C22.2354 15.2274 21.1306 14.8923 20.0005 14.8923C18.4849 14.8923 17.0315 15.4943 15.9599 16.566C14.8882 17.6376 14.2862 19.0911 14.2862 20.6066V20.6066Z" stroke="white" stroke-width="1.5" stroke-linecap="round" stroke-linejoin="round"/>
</svg>
