<svg width="24" height="24" viewBox="0 0 24 24" fill="none" xmlns="http://www.w3.org/2000/svg">
<path d="M12 22.9559C13.1256 22.9559 14.2402 22.7342 15.2801 22.3034C16.3201 21.8727 17.265 21.2413 18.0609 20.4454C18.8568 19.6494 19.4882 18.7045 19.919 17.6646C20.3497 16.6247 20.5714 15.5101 20.5714 14.3844V9.61873C20.5715 7.51305 19.7966 5.481 18.3943 3.91016" stroke="#189292" stroke-width="1.5" stroke-linecap="round" stroke-linejoin="round"/>
<path d="M3.42871 11.5195V14.3824C3.42814 16.0697 3.9256 17.7197 4.85876 19.1256C5.79192 20.5314 7.11926 21.6306 8.67443 22.2852" stroke="#189292" stroke-width="1.5" stroke-linecap="round" stroke-linejoin="round"/>
<path d="M16.2863 2.19521C14.3176 1.05862 11.9781 0.750609 9.78231 1.33893C7.58654 1.92726 5.71441 3.36373 4.57773 5.33235C4.10969 6.14069 3.77946 7.0213 3.60059 7.93807" stroke="#189292" stroke-width="1.5" stroke-linecap="round" stroke-linejoin="round"/>
<path d="M11.1084 6.01952C11.7389 5.88862 12.3908 5.90091 13.0159 6.05549C13.641 6.21006 14.2235 6.50297 14.7203 6.91263C15.2172 7.32228 15.6157 7.83823 15.8866 8.42243C16.1575 9.00663 16.2939 9.64419 16.2855 10.2881V13.0481" stroke="#189292" stroke-width="1.5" stroke-linecap="round" stroke-linejoin="round"/>
<path d="M15.1887 16.6485C14.6054 17.2982 13.8376 17.7543 12.988 17.9557C12.1384 18.157 11.2476 18.0941 10.4348 17.7753C9.62192 17.4565 8.92584 16.897 8.43968 16.1718C7.95352 15.4465 7.70048 14.5901 7.71441 13.7171V10.2885C7.71115 9.69973 7.82781 9.11645 8.05727 8.57422" stroke="#189292" stroke-width="1.5" stroke-linecap="round" stroke-linejoin="round"/>
<path d="M12 10.4766V13.3394" stroke="#189292" stroke-width="1.5" stroke-linecap="round" stroke-linejoin="round"/>
</svg>
