<svg width="20" height="21" viewBox="0 0 20 21" fill="none" xmlns="http://www.w3.org/2000/svg">
<g clip-path="url(#clip0_284_1503)">
<path d="M2.14342 9.11328H3.57199C3.76143 9.11328 3.94311 9.18854 4.07706 9.32249C4.21102 9.45645 4.28627 9.63813 4.28627 9.82757V13.399C4.28627 13.5884 4.21102 13.7701 4.07706 13.9041C3.94311 14.038 3.76143 14.1133 3.57199 14.1133H2.14342C1.76453 14.1133 1.40117 13.9628 1.13326 13.6949C0.865354 13.427 0.714844 13.0636 0.714844 12.6847V10.5419C0.714844 10.163 0.865354 9.79961 1.13326 9.5317C1.40117 9.26379 1.76453 9.11328 2.14342 9.11328V9.11328Z" stroke="white" stroke-linecap="round" stroke-linejoin="round"/>
<path d="M17.8605 14.1133H16.4319C16.2425 14.1133 16.0608 14.038 15.9268 13.9041C15.7929 13.7701 15.7176 13.5884 15.7176 13.399V9.82757C15.7176 9.63813 15.7929 9.45644 15.9268 9.32249C16.0608 9.18854 16.2425 9.11328 16.4319 9.11328H17.8605C18.2394 9.11328 18.6027 9.26379 18.8706 9.5317C19.1386 9.79961 19.2891 10.163 19.2891 10.5419V12.6847C19.2891 13.0636 19.1386 13.427 18.8706 13.6949C18.6027 13.9628 18.2394 14.1133 17.8605 14.1133V14.1133Z" stroke="white" stroke-linecap="round" stroke-linejoin="round"/>
<path d="M13.5703 18.0419C14.3281 18.0419 15.0548 17.7408 15.5906 17.205C16.1264 16.6692 16.4275 15.9425 16.4275 15.1847V14.1133" stroke="white" stroke-linecap="round" stroke-linejoin="round"/>
<path d="M11.7879 16.2539C12.2615 16.2539 12.7158 16.442 13.0506 16.7769C13.3855 17.1118 13.5737 17.566 13.5737 18.0396C13.5737 18.5132 13.3855 18.9674 13.0506 19.3023C12.7158 19.6372 12.2615 19.8253 11.7879 19.8253H9.64509C9.17149 19.8253 8.71729 19.6372 8.3824 19.3023C8.04751 18.9674 7.85938 18.5132 7.85938 18.0396C7.85938 17.566 8.04751 17.1118 8.3824 16.7769C8.71729 16.442 9.17149 16.2539 9.64509 16.2539H11.7879Z" stroke="white" stroke-linecap="round" stroke-linejoin="round"/>
<path d="M3.57031 9.11105V7.68248C3.57031 5.97751 4.24761 4.34238 5.4532 3.13679C6.65879 1.9312 8.29392 1.25391 9.99888 1.25391C11.7038 1.25391 13.339 1.9312 14.5446 3.13679C15.7502 4.34238 16.4275 5.97751 16.4275 7.68248V9.11105" stroke="white" stroke-linecap="round" stroke-linejoin="round"/>
<path d="M7.85938 6.25391V8.39676" stroke="white" stroke-linecap="round" stroke-linejoin="round"/>
<path d="M12.1406 6.25391V8.39676" stroke="white" stroke-linecap="round" stroke-linejoin="round"/>
<path d="M7.85938 11.2539C7.85938 13.1539 12.1451 13.1539 12.1451 11.2539" stroke="white" stroke-linecap="round" stroke-linejoin="round"/>
</g>
<defs>
<clipPath id="clip0_284_1503">
<rect width="20" height="20" fill="white" transform="translate(0 0.539062)"/>
</clipPath>
</defs>
</svg>
