<svg width="30" height="30" viewBox="0 0 30 30" fill="none" xmlns="http://www.w3.org/2000/svg">
<path d="M9.64174 27.8577C14.3756 27.8577 18.2132 24.0201 18.2132 19.2863C18.2132 14.5524 14.3756 10.7148 9.64174 10.7148C4.90787 10.7148 1.07031 14.5524 1.07031 19.2863C1.07031 24.0201 4.90787 27.8577 9.64174 27.8577Z" stroke="white" stroke-width="1.5" stroke-linecap="round" stroke-linejoin="round"/>
<path d="M20.3566 27.8577C25.0905 27.8577 28.928 24.0201 28.928 19.2863C28.928 14.5524 25.0905 10.7148 20.3566 10.7148C15.6227 10.7148 11.7852 14.5524 11.7852 19.2863C11.7852 24.0201 15.6227 27.8577 20.3566 27.8577Z" stroke="white" stroke-width="1.5" stroke-linecap="round" stroke-linejoin="round"/>
<path d="M14.9972 19.2874C19.7311 19.2874 23.5686 15.4498 23.5686 10.716C23.5686 5.98209 19.7311 2.14453 14.9972 2.14453C10.2633 2.14453 6.42578 5.98209 6.42578 10.716C6.42578 15.4498 10.2633 19.2874 14.9972 19.2874Z" stroke="white" stroke-width="1.5" stroke-linecap="round" stroke-linejoin="round"/>
</svg>
