<svg width="60" height="60" viewBox="0 0 60 60" fill="none" xmlns="http://www.w3.org/2000/svg">
<path d="M12.8569 57.8544C18.7742 57.8544 23.5711 53.0574 23.5711 47.1401C23.5711 41.2227 18.7742 36.4258 12.8569 36.4258C6.93953 36.4258 2.14258 41.2227 2.14258 47.1401C2.14258 53.0574 6.93953 57.8544 12.8569 57.8544Z" stroke="#189292" stroke-width="2" stroke-linecap="round" stroke-linejoin="round"/>
<path d="M23.5717 12.8556V6.42705C23.5717 5.29041 23.1202 4.20032 22.3164 3.39659C21.5127 2.59286 20.4226 2.14133 19.286 2.14133H14.2288C13.2202 2.12299 12.2373 2.46107 11.4534 3.09607C10.6695 3.73106 10.1347 4.62225 9.94314 5.61276L2.35742 44.9985" stroke="#189292" stroke-width="2" stroke-linecap="round" stroke-linejoin="round"/>
<path d="M19.2852 23.5703H40.7137" stroke="#189292" stroke-width="2" stroke-linecap="round" stroke-linejoin="round"/>
<path d="M23.5703 34.2852V47.1423" stroke="#189292" stroke-width="2" stroke-linecap="round" stroke-linejoin="round"/>
<path d="M47.142 57.8544C53.0594 57.8544 57.8563 53.0574 57.8563 47.1401C57.8563 41.2227 53.0594 36.4258 47.142 36.4258C41.2247 36.4258 36.4277 41.2227 36.4277 47.1401C36.4277 53.0574 41.2247 57.8544 47.142 57.8544Z" stroke="#189292" stroke-width="2" stroke-linecap="round" stroke-linejoin="round"/>
<path d="M36.4277 12.8556V6.42705C36.4277 5.29041 36.8793 4.20032 37.683 3.39659C38.4867 2.59286 39.5768 2.14133 40.7134 2.14133H45.7706C46.7793 2.12299 47.7621 2.46107 48.546 3.09607C49.33 3.73106 49.8648 4.62225 50.0563 5.61276L57.7277 44.9985" stroke="#189292" stroke-width="2" stroke-linecap="round" stroke-linejoin="round"/>
<path d="M36.4277 34.2852V47.1423" stroke="#189292" stroke-width="2" stroke-linecap="round" stroke-linejoin="round"/>
</svg>
