<svg width="60" height="61" viewBox="0 0 60 61" fill="none" xmlns="http://www.w3.org/2000/svg">
<path d="M22.413 10.1836L24.2559 5.42645C24.5667 4.62101 25.1135 3.92821 25.8247 3.43879C26.5359 2.94937 27.3783 2.68614 28.2416 2.68359H31.7559C32.6192 2.68614 33.4616 2.94937 34.1728 3.43879C34.884 3.92821 35.4308 4.62101 35.7416 5.42645L37.5845 10.1836L43.8416 13.7836L48.8988 13.0122C49.7408 12.8979 50.5979 13.0365 51.361 13.4104C52.1241 13.7843 52.7588 14.3767 53.1845 15.1122L54.8988 18.1122C55.338 18.8594 55.5404 19.7222 55.4792 20.5868C55.418 21.4514 55.0961 22.2772 54.5559 22.955L51.4273 26.9407V34.1407L54.6416 38.1265C55.1818 38.8043 55.5037 39.63 55.5649 40.4946C55.6261 41.3593 55.4237 42.2221 54.9845 42.9693L53.2702 45.9693C52.8445 46.7048 52.2098 47.2971 51.4467 47.6711C50.6836 48.045 49.8265 48.1836 48.9845 48.0693L43.9273 47.2979L37.6702 50.8979L35.8273 55.655C35.5165 56.4605 34.9697 57.1533 34.2585 57.6427C33.5473 58.1321 32.7049 58.3953 31.8416 58.3979H28.2416C27.3783 58.3953 26.5359 58.1321 25.8247 57.6427C25.1135 57.1533 24.5667 56.4605 24.2559 55.655L22.413 50.8979L16.1559 47.2979L11.0987 48.0693C10.2567 48.1836 9.39964 48.045 8.63653 47.6711C7.87342 47.2971 7.23871 46.7048 6.81304 45.9693L5.09875 42.9693C4.65947 42.2221 4.45708 41.3593 4.51829 40.4946C4.5795 39.63 4.90144 38.8043 5.44161 38.1265L8.57018 34.1407V26.9407L5.35589 22.955C4.81572 22.2772 4.49379 21.4514 4.43258 20.5868C4.37137 19.7222 4.57376 18.8594 5.01304 18.1122L6.72732 15.1122C7.15299 14.3767 7.78771 13.7843 8.55082 13.4104C9.31392 13.0365 10.171 12.8979 11.013 13.0122L16.0702 13.7836L22.413 10.1836ZM21.4273 30.5407C21.4273 32.236 21.93 33.8932 22.8719 35.3028C23.8137 36.7123 25.1524 37.811 26.7186 38.4597C28.2848 39.1085 30.0083 39.2782 31.671 38.9475C33.3336 38.6167 34.8609 37.8004 36.0597 36.6017C37.2584 35.4029 38.0748 33.8756 38.4055 32.2129C38.7362 30.5502 38.5665 28.8268 37.9177 27.2606C37.269 25.6944 36.1703 24.3557 34.7608 23.4139C33.3512 22.472 31.694 21.9693 29.9988 21.9693C27.7255 21.9693 25.5453 22.8724 23.9378 24.4798C22.3304 26.0873 21.4273 28.2675 21.4273 30.5407Z" stroke="#189292" stroke-width="2" stroke-linecap="round" stroke-linejoin="round"/>
</svg>
