<svg width="20" height="21" viewBox="0 0 20 21" fill="none" xmlns="http://www.w3.org/2000/svg">
<g clip-path="url(#clip0_284_1865)">
<path d="M13.3389 14.1439C15.4671 10.8044 15.1996 11.221 15.2609 11.1339C16.0358 10.0411 16.4453 8.75477 16.4453 7.41406C16.4453 3.85859 13.5601 0.929688 10 0.929688C6.45148 0.929688 3.55469 3.85281 3.55469 7.41406C3.55469 8.75391 3.97281 10.0739 4.77305 11.1815L6.66102 14.144C4.64246 14.4542 1.21094 15.3786 1.21094 17.4141C1.21094 18.1561 1.69523 19.2135 4.00242 20.0375C5.61344 20.6128 7.7434 20.9297 10 20.9297C14.2197 20.9297 18.7891 19.7394 18.7891 17.4141C18.7891 15.3782 15.3616 14.4548 13.3389 14.1439ZM5.75191 10.5369C5.74547 10.5268 5.73875 10.517 5.73172 10.5073C5.06582 9.59121 4.72656 8.50551 4.72656 7.41406C4.72656 4.48367 7.08617 2.10156 10 2.10156C12.9078 2.10156 15.2734 4.48473 15.2734 7.41406C15.2734 8.50727 14.9406 9.55613 14.3107 10.4481C14.2543 10.5225 14.5487 10.065 10 17.2027L5.75191 10.5369ZM10 19.7578C5.39086 19.7578 2.38281 18.403 2.38281 17.4141C2.38281 16.7494 3.92844 15.6564 7.35344 15.2304L9.50586 18.6079C9.61344 18.7767 9.79977 18.8789 9.99996 18.8789C10.2002 18.8789 10.3865 18.7767 10.4941 18.6079L12.6464 15.2304C16.0715 15.6564 17.6172 16.7494 17.6172 17.4141C17.6172 18.3946 14.6362 19.7578 10 19.7578Z" fill="white"/>
<path d="M10 4.48438C8.38457 4.48438 7.07031 5.79863 7.07031 7.41406C7.07031 9.02949 8.38457 10.3438 10 10.3438C11.6154 10.3438 12.9297 9.02949 12.9297 7.41406C12.9297 5.79863 11.6154 4.48438 10 4.48438ZM10 9.17188C9.03074 9.17188 8.24219 8.38332 8.24219 7.41406C8.24219 6.4448 9.03074 5.65625 10 5.65625C10.9693 5.65625 11.7578 6.4448 11.7578 7.41406C11.7578 8.38332 10.9693 9.17188 10 9.17188Z" fill="white"/>
</g>
<defs>
<clipPath id="clip0_284_1865">
<rect width="20" height="20" fill="white" transform="translate(0 0.929688)"/>
</clipPath>
</defs>
</svg>
