<svg width="25" height="26" viewBox="0 0 25 26" fill="none" xmlns="http://www.w3.org/2000/svg">
<g clip-path="url(#clip0_284_1597)">
<path d="M24.1063 20.1802C24.1063 17.7147 22.1076 15.716 19.642 15.716C17.1765 15.716 15.1777 17.7147 15.1777 20.1802C15.1777 22.6458 17.1765 24.6445 19.642 24.6445C22.1076 24.6445 24.1063 22.6458 24.1063 20.1802Z" stroke="white" stroke-width="1.5" stroke-linecap="round" stroke-linejoin="round"/>
<path d="M5.35716 15.7154H2.67859C2.20499 15.7154 1.75078 15.9035 1.4159 16.2384C1.08101 16.5733 0.892874 17.0275 0.892874 17.5011L0.892874 19.6083C0.88523 20.0285 1.0261 20.4381 1.29068 20.7647C1.55526 21.0913 1.92659 21.3142 2.3393 21.394L18.75 24.5547" stroke="white" stroke-width="1.5" stroke-linecap="round" stroke-linejoin="round"/>
<path d="M9.82227 17.5V8.57143" stroke="white" stroke-width="1.5" stroke-linecap="round" stroke-linejoin="round"/>
<path d="M14.2852 15.7148H19.6423" stroke="white" stroke-width="1.5" stroke-linecap="round" stroke-linejoin="round"/>
<path d="M24.1063 5.89509C24.1063 3.42953 22.1076 1.4308 19.642 1.4308C17.1765 1.4308 15.1777 3.42953 15.1777 5.89509C15.1777 8.36065 17.1765 10.3594 19.642 10.3594C22.1076 10.3594 24.1063 8.36065 24.1063 5.89509Z" stroke="white" stroke-width="1.5" stroke-linecap="round" stroke-linejoin="round"/>
<path d="M5.35716 10.3594H2.67859C2.20499 10.3594 1.75078 10.1712 1.4159 9.83635C1.08101 9.50146 0.892874 9.04726 0.892874 8.57366L0.892874 6.46652C0.88523 6.04623 1.0261 5.63672 1.29068 5.31008C1.55526 4.98344 1.92659 4.7606 2.3393 4.6808L18.75 1.48438" stroke="white" stroke-width="1.5" stroke-linecap="round" stroke-linejoin="round"/>
<path d="M14.2852 10.3594H19.6423" stroke="white" stroke-width="1.5" stroke-linecap="round" stroke-linejoin="round"/>
</g>
<defs>
<clipPath id="clip0_284_1597">
<rect width="25" height="25" fill="white" transform="matrix(0 -1 1 0 0 25.5391)"/>
</clipPath>
</defs>
</svg>
