<svg width="24" height="24" viewBox="0 0 24 24" fill="none" xmlns="http://www.w3.org/2000/svg">
<g clip-path="url(#clip0_284_449)">
<path d="M11.9983 23.1451V0.859375C9.04306 0.859375 6.20883 2.03335 4.11914 4.12304C2.02944 6.21273 0.855469 9.04696 0.855469 12.0022C0.855469 14.9575 2.02944 17.7917 4.11914 19.8814C6.20883 21.9711 9.04306 23.1451 11.9983 23.1451Z" stroke="white" stroke-linecap="round" stroke-linejoin="round"/>
<path d="M16.4727 1.80469C17.2662 2.14573 18.0147 2.58332 18.7012 3.10754C19.3888 3.60411 20.016 4.17945 20.5698 4.82183" stroke="white" stroke-linecap="round" stroke-linejoin="round"/>
<path d="M16.4727 22.2906C17.2662 21.9495 18.0147 21.5119 18.7012 20.9877C19.3888 20.4912 20.016 19.9158 20.5698 19.2734" stroke="white" stroke-linecap="round" stroke-linejoin="round"/>
<path d="M22.8516 9.42969C23.2403 11.1219 23.2403 12.8803 22.8516 14.5725" stroke="white" stroke-linecap="round" stroke-linejoin="round"/>
</g>
<defs>
<clipPath id="clip0_284_449">
<rect width="24" height="24" fill="white"/>
</clipPath>
</defs>
</svg>
